<?xml version="1.0" encoding="UTF-8"?>
<svg xmlns="http://www.w3.org/2000/svg" version="1.0" width="7500.000000ptpx" height="7500.000000ptpx" viewBox="0 0 7500.000000 7500.000000" preserveAspectRatio="xMidYMid meet" transform="rotate(0) scale(1, 1)">
  <g transform="translate(0.000000,7500.000000) scale(0.100000,-0.100000)" fill="#ffffff" stroke="none">
    <path d="M37340 71992 c-1023 -583 -2186 -1551 -3140 -2611 -47 -52 -106 -118&#10;-131 -145 -453 -503 -1024 -1260 -1454 -1929 -39 -59 -76 -116 -83 -125 -13&#10;-17 -12 125 3 448 3 52 9 264 15 470 5 206 12 434 15 505 3 72 10 346 15 610&#10;6 264 12 525 15 580 8 204 18 1075 11 1075 -8 0 -220 -88 -356 -148 -219 -97&#10;-573 -280 -755 -392 -36 -22 -67 -40 -69 -40 -6 0 -217 -133 -321 -203 -628&#10;-418 -1267 -994 -1747 -1573 -46 -55 -96 -116 -112 -135 -74 -89 -334 -440&#10;-427 -579 -276 -408 -532 -863 -679 -1205 -65 -151 -67 -150 -75 11 -24 436&#10;62 1363 195 2109 12 66 28 158 36 204 8 46 28 149 45 230 16 80 34 169 39 196&#10;28 155 125 573 208 895 70 276 67 260 49 260 -22 0 -325 -117 -532 -205 -198&#10;-85 -531 -247 -694 -337 -58 -32 -106 -58 -108 -58 -2 0 -88 -50 -191 -111&#10;-357 -213 -788 -512 -1087 -753 -468 -378 -860 -751 -1290 -1226 -303 -335&#10;-655 -788 -936 -1205 -125 -185 -258 -398 -355 -567 -43 -76 -80 -136 -82&#10;-134 -4 5 4 48 68 356 28 135 55 265 60 290 5 25 32 155 60 290 28 135 55 265&#10;60 290 5 25 23 108 39 185 16 77 44 210 61 295 18 85 41 196 51 245 11 50 23&#10;113 29 140 5 28 16 84 25 125 14 62 41 193 122 584 8 40 -1 35 -150 -70 -369&#10;-263 -804 -620 -1237 -1018 -177 -163 -619 -599 -765 -756 -658 -704 -1174&#10;-1355 -1664 -2097 -184 -279 -201 -305 -327 -513 -111 -183 -208 -353 -324&#10;-565 -118 -216 -234 -443 -327 -640 -108 -229 -153 -325 -153 -329 0 -2 -15&#10;-37 -34 -78 -110 -236 -342 -832 -423 -1083 -22 -70 -27 -43 -13 78 21 192 36&#10;324 80 742 11 105 25 231 30 280 5 50 16 153 25 230 8 77 22 203 30 280 14&#10;131 43 396 65 600 5 50 16 153 25 230 8 77 22 208 30 290 9 83 18 166 20 185&#10;4 32 17 152 60 550 17 151 35 316 60 543 8 72 21 194 30 269 9 75 15 145 13&#10;155 -6 26 -440 -411 -638 -643 -349 -407 -597 -735 -924 -1224 -156 -233 -178&#10;-267 -266 -410 -29 -47 -67 -107 -85 -135 -75 -115 -359 -618 -489 -865 -158&#10;-300 -536 -1079 -536 -1105 0 -3 -15 -37 -34 -77 -90 -194 -274 -643 -401&#10;-978 -18 -50 -43 -114 -59 -157 -81 -211 -289 -822 -379 -1113 -55 -179 -157&#10;-523 -191 -645 -9 -33 -28 -100 -42 -150 -93 -332 -237 -922 -334 -1375 -17&#10;-80 -38 -174 -45 -210 -13 -56 -76 -386 -120 -620 -33 -174 -93 -529 -130&#10;-775 -47 -303 -54 -351 -65 -441 -14 -124 -21 -151 -30 -133 -7 13 -34 117&#10;-74 289 -54 225 -128 645 -166 945 -63 489 -79 1074 -40 1466 11 112 22 209&#10;25 216 27 74 -190 -149 -387 -397 -339 -429 -679 -1060 -933 -1730 -7 -19 -20&#10;-53 -28 -75 -58 -146 -167 -472 -241 -720 -167 -560 -292 -1100 -421 -1810&#10;-58 -326 -140 -888 -180 -1240 -8 -77 -20 -174 -25 -215 -19 -157 -75 -779&#10;-85 -960 -3 -58 -8 -121 -10 -140 -3 -19 -9 -129 -15 -245 -6 -115 -12 -241&#10;-15 -280 -38 -570 -37 -2102 0 -2615 7 -83 25 -399 25 -424 0 -49 -104 89&#10;-192 254 -148 276 -315 748 -476 1345 -59 220 -72 271 -113 440 -11 50 -24 94&#10;-28 98 -8 8 -75 -253 -110 -428 -69 -344 -121 -752 -141 -1115 -11 -193 -14&#10;-871 -5 -1045 32 -590 101 -1155 215 -1753 40 -214 151 -682 216 -917 9 -33&#10;20 -73 24 -90 18 -69 63 -211 118 -380 33 -99 59 -181 58 -183 -2 -1 -36 6&#10;-77 17 -91 23 -315 73 -429 96 -47 10 -99 21 -116 25 -67 16 -110 -23 -213&#10;-198 -121 -204 -248 -495 -355 -813 -349 -1042 -419 -2123 -195 -3014 41 -164&#10;129 -422 199 -583 73 -167 143 -285 277 -465 239 -320 531 -659 998 -1157 175&#10;-187 743 -751 906 -900 99 -91 185 -171 191 -177 7 -9 -1 -25 -28 -57 -341&#10;-390 -502 -587 -730 -891 -333 -445 -626 -897 -874 -1350 -18 -33 -46 -84 -62&#10;-112 -85 -156 -368 -730 -368 -748 0 -11 40 13 1575 975 363 228 723 453 800&#10;501 77 48 178 112 224 141 47 29 97 60 113 69 15 9 35 22 43 29 24 20 31 2 8&#10;-23 -11 -12 -81 -101 -155 -197 -215 -280 -448 -608 -653 -920 -230 -351 -384&#10;-602 -567 -925 -163 -287 -224 -402 -381 -715 -355 -709 -590 -1291 -786&#10;-1949 -96 -319 -233 -892 -218 -907 2 -2 47 47 99 109 305 358 813 777 1373&#10;1132 88 56 378 230 443 267 318 177 744 392 763 386 6 -2 -10 -33 -35 -68&#10;-728 -1043 -1382 -2254 -1758 -3255 -108 -290 -156 -431 -247 -740 -25 -85&#10;-64 -239 -102 -400 -34 -146 -83 -428 -98 -570 -7 -55 -13 -115 -16 -132 -5&#10;-42 6 -41 52 0 116 103 908 741 1278 1028 150 117 665 501 761 569 281 196&#10;550 368 560 357 3 -3 -25 -67 -61 -144 -264 -545 -551 -1215 -770 -1793 -12&#10;-33 -29 -77 -61 -160 -124 -324 -374 -1103 -438 -1370 -4 -14 -17 -65 -30&#10;-115 -33 -127 -93 -392 -125 -555 -32 -163 -74 -447 -86 -590 -4 -41 -9 -88&#10;-11 -105 -1 -16 -6 -100 -10 -187 -6 -135 -5 -158 8 -158 8 0 43 24 79 53 283&#10;233 1010 748 1499 1062 41 26 98 63 125 80 80 52 392 244 485 298 47 27 132&#10;77 190 112 58 34 137 79 175 100 39 22 82 46 97 54 15 9 29 13 32 11 2 -3 -4&#10;-30 -14 -60 -51 -151 -176 -613 -235 -870 -192 -833 -301 -1593 -354 -2480&#10;-13 -227 -11 -1073 4 -1315 19 -312 75 -835 94 -887 6 -18 19 -3 81 98 392&#10;633 871 1190 1435 1670 80 68 304 234 316 234 5 0 9 -61 10 -142 0 -194 24&#10;-775 34 -826 1 -9 6 -57 9 -107 50 -668 189 -1496 371 -2200 26 -99 50 -193&#10;54 -210 51 -196 229 -741 329 -1005 204 -539 473 -1095 764 -1578 44 -73 84&#10;-130 88 -125 4 4 17 58 29 118 12 61 28 139 36 175 19 86 66 296 75 340 43&#10;196 214 872 300 1185 12 44 26 94 30 110 9 35 54 197 75 270 36 122 67 232 72&#10;250 8 28 148 501 183 615 83 273 95 308 101 298 4 -7 10 -39 14 -72 8 -72 72&#10;-473 85 -531 5 -22 18 -87 29 -145 11 -58 30 -148 41 -200 12 -52 25 -117 30&#10;-144 6 -27 14 -65 20 -85 5 -20 30 -121 56 -226 124 -513 311 -1138 504 -1690&#10;120 -343 378 -1000 493 -1255 11 -25 41 -94 68 -155 61 -141 141 -319 209&#10;-465 75 -159 378 -766 437 -875 27 -49 71 -130 98 -180 64 -119 86 -159 163&#10;-295 36 -63 74 -131 85 -150 88 -159 332 -558 339 -554 4 3 6 17 3 32 -23 136&#10;-40 1066 -24 1402 12 274 40 656 59 820 37 317 53 441 100 740 11 71 37 221&#10;50 285 5 28 19 95 30 151 19 97 76 351 86 387 9 30 20 19 33 -35 58 -229 258&#10;-848 358 -1103 8 -22 21 -56 29 -75 238 -629 530 -1256 859 -1845 99 -176 322&#10;-535 459 -740 346 -514 671 -915 1081 -1333 195 -199 547 -514 560 -500 3 3&#10;-6 556 -20 1153 -3 132 -10 467 -15 745 -5 278 -12 593 -15 700 -16 690 -17&#10;770 -6 770 6 0 11 -3 11 -7 1 -41 452 -489 925 -918 115 -104 228 -208 252&#10;-230 l43 -40 -15 -65 c-8 -36 -24 -112 -35 -170 -12 -58 -27 -134 -35 -170&#10;-60 -284 -147 -930 -170 -1275 -4 -49 -8 -101 -11 -115 -2 -14 -11 -158 -20&#10;-320 -19 -318 -24 -1369 -8 -1422 l9 -28 50 62 c70 88 526 651 585 723 94 115&#10;336 413 450 555 63 78 120 148 126 154 5 6 30 36 55 67 152 191 201 250 206&#10;245 3 -3 0 -33 -6 -68 -55 -320 -77 -849 -51 -1207 77 -1054 476 -2003 1189&#10;-2831 479 -555 1142 -1077 1782 -1401 124 -63 144 -69 135 -41 -14 45 -67 322&#10;-85 448 -38 260 -46 378 -46 639 0 314 18 481 80 740 43 178 135 420 158 412&#10;5 -1 37 -47 71 -100 57 -91 264 -373 338 -461 602 -718 1473 -1446 2498 -2088&#10;167 -104 356 -217 465 -278 22 -12 74 -42 115 -65 172 -99 613 -322 803 -406&#10;48 -22 129 -58 180 -80 50 -23 103 -45 117 -49 14 -5 70 -27 125 -50 108 -45&#10;506 -180 530 -180 8 0 15 2 15 5 0 2 -18 51 -41 107 -68 171 -171 450 -244&#10;663 -39 112 -150 476 -175 570 -4 17 -15 55 -23 85 -54 196 -100 390 -95 395&#10;3 3 49 -43 103 -102 211 -233 667 -682 880 -869 157 -137 165 -143 340 -285&#10;364 -295 764 -550 1087 -693 l86 -38 154 74 c199 96 334 175 533 306 534 355&#10;1099 854 1685 1489 62 68 114 123 116 123 5 0 5 -1 -31 -155 -74 -318 -260&#10;-923 -381 -1237 -8 -21 -20 -55 -28 -75 -19 -53 -38 -101 -90 -233 -25 -64&#10;-46 -119 -46 -124 0 -29 583 178 858 305 46 22 85 39 87 39 26 0 587 284 844&#10;427 302 168 697 411 931 572 52 35 129 88 170 116 791 544 1518 1192 1991&#10;1775 131 161 250 328 355 497 8 13 18 23 23 23 18 0 110 -238 147 -380 66&#10;-256 87 -449 87 -785 0 -374 -24 -578 -117 -1020 -8 -38 -13 -71 -10 -74 11&#10;-11 317 151 500 265 456 284 798 557 1170 935 235 238 394 426 560 660 63 90&#10;90 131 174 264 80 128 231 412 302 570 218 483 351 1014 393 1565 30 382 6&#10;961 -51 1268 -8 42 4 40 42 -6 16 -20 61 -75 99 -122 38 -47 97 -119 130 -160&#10;91 -111 342 -422 486 -599 69 -86 188 -233 265 -327 76 -94 207 -255 289 -357&#10;83 -102 155 -185 160 -183 12 3 14 1142 2 1373 -35 704 -107 1294 -233 1917&#10;-19 93 -34 172 -34 176 0 4 60 61 133 126 552 495 974 899 1132 1086 32 38 60&#10;68 62 68 3 0 3 -127 -1 -283 -4 -155 -9 -372 -11 -482 -3 -110 -10 -427 -15&#10;-705 -5 -278 -12 -611 -15 -740 -13 -534 -23 -1155 -19 -1159 12 -13 364 301&#10;560 501 814 829 1475 1826 2072 3128 80 174 221 516 329 795 8 22 20 51 25 65&#10;80 198 257 740 343 1050 15 52 30 99 35 104 10 10 11 5 50 -164 83 -360 154&#10;-779 204 -1195 31 -254 36 -302 46 -430 6 -71 13 -159 16 -195 39 -445 39&#10;-1462 1 -1797 -3 -24 -2 -45 2 -47 10 -6 349 565 513 864 14 25 47 86 73 135&#10;27 50 71 131 97 180 59 108 365 719 430 860 49 104 109 235 148 320 68 148&#10;283 658 357 845 175 442 298 786 478 1340 109 338 310 1083 380 1410 81 380&#10;159 812 181 995 13 113 9 121 114 -225 34 -111 175 -586 183 -615 3 -11 30&#10;-105 60 -210 30 -104 57 -199 60 -210 2 -11 15 -56 27 -100 12 -44 26 -93 30&#10;-110 4 -16 18 -66 30 -110 12 -44 29 -105 37 -135 8 -30 19 -71 23 -90 5 -19&#10;36 -143 70 -275 54 -215 119 -479 140 -575 4 -19 26 -116 48 -215 22 -99 50&#10;-232 62 -295 12 -63 26 -119 30 -123 7 -8 146 214 225 358 16 28 47 84 70 125&#10;65 114 224 436 308 620 169 371 337 811 452 1185 21 66 43 138 51 160 19 58&#10;62 212 125 450 57 217 159 671 189 843 5 31 18 107 30 167 11 61 24 139 30&#10;175 5 36 18 124 29 195 18 122 52 386 66 520 3 33 8 71 10 85 2 14 9 88 15&#10;165 6 77 13 154 15 170 3 27 18 291 30 535 2 52 4 173 5 268 0 105 4 172 10&#10;172 15 0 272 -196 400 -306 341 -291 763 -754 1051 -1154 97 -134 263 -383&#10;319 -478 23 -40 46 -75 51 -77 10 -7 26 73 39 195 6 52 13 109 15 125 11 64&#10;44 467 50 600 3 77 8 160 11 185 6 54 6 879 0 965 -2 33 -7 121 -11 195 -6&#10;131 -40 569 -50 640 -2 19 -9 80 -15 135 -6 55 -13 116 -15 135 -3 19 -10 73&#10;-16 120 -5 47 -19 141 -29 210 -10 69 -22 145 -25 170 -4 25 -13 79 -20 120&#10;-7 41 -21 118 -30 170 -94 527 -278 1293 -385 1598 -24 68 -24 65 0 57 53 -17&#10;697 -397 965 -570 409 -264 674 -441 945 -635 234 -167 518 -379 657 -490 48&#10;-38 93 -70 100 -70 17 0 17 89 -2 331 -25 323 -73 628 -151 974 -35 151 -84&#10;354 -94 390 -5 17 -24 82 -41 145 -62 225 -180 608 -239 775 -16 44 -38 109&#10;-50 145 -22 65 -89 254 -114 320 -8 19 -21 54 -30 78 -17 46 -24 63 -87 227&#10;-193 502 -486 1180 -714 1649 -36 76 -64 140 -61 143 11 12 339 -199 601 -387&#10;201 -144 655 -488 907 -685 365 -287 991 -793 1091 -882 62 -55 61 -62 31 172&#10;-64 503 -212 1061 -442 1670 -85 223 -175 444 -242 590 -15 33 -51 112 -80&#10;175 -344 756 -886 1697 -1429 2480 -28 41 -47 76 -42 78 10 3 398 -186 521&#10;-254 36 -19 99 -54 140 -76 134 -74 163 -90 315 -181 683 -410 1250 -860 1603&#10;-1274 52 -62 97 -111 100 -109 8 9 -92 464 -143 646 -227 825 -538 1600 -986&#10;2458 -40 75 -80 151 -89 167 -10 17 -32 57 -50 90 -18 33 -62 112 -98 175 -36&#10;63 -74 131 -85 150 -54 98 -281 469 -372 610 -318 492 -572 852 -882 1249 -67&#10;86 -87 123 -48 91 8 -7 28 -20 44 -29 15 -9 121 -74 235 -146 329 -207 413&#10;-260 551 -345 110 -69 585 -366 1513 -948 370 -232 404 -253 408 -249 11 11&#10;-259 558 -420 852 -424 771 -982 1552 -1605 2245 -22 25 -40 48 -41 51 0 4 73&#10;73 163 155 628 574 1520 1531 1910 2051 183 243 232 327 325 548 419 999 414&#10;2276 -14 3554 -140 418 -345 847 -464 972 -40 42 -40 42 -97 36 -32 -4 -141&#10;-25 -243 -48 -102 -22 -203 -45 -225 -49 -22 -5 -52 -13 -66 -18 -14 -6 -41&#10;-12 -60 -13 -40 -4 -43 -23 28 191 81 244 108 340 191 660 203 790 325 1571&#10;372 2384 14 229 14 908 1 1131 -22 364 -71 754 -137 1085 -38 191 -106 462&#10;-115 453 -4 -4 -17 -48 -28 -98 -157 -659 -330 -1212 -504 -1610 -72 -167&#10;-194 -372 -252 -425 l-27 -25 6 110 c4 61 11 175 16 255 13 194 28 664 36&#10;1121 8 418 -6 1049 -36 1659 -20 390 -27 501 -56 855 -47 580 -118 1192 -194&#10;1685 -36 230 -38 242 -60 365 -11 66 -25 145 -30 175 -22 139 -120 615 -165&#10;805 -8 33 -28 121 -46 195 -103 436 -286 1052 -405 1363 -8 20 -20 54 -28 75&#10;-8 20 -21 55 -29 77 -9 22 -31 81 -51 130 -211 548 -525 1128 -827 1530 -143&#10;191 -421 501 -438 490 -4 -2 -1 -48 6 -102 24 -188 28 -291 28 -673 0 -489&#10;-22 -754 -111 -1310 -39 -246 -160 -806 -184 -849 -8 -15 -15 22 -45 239 -24&#10;178 -92 616 -120 770 -8 47 -28 162 -45 255 -42 236 -111 593 -150 775 -46&#10;211 -51 237 -60 280 -5 25 -32 144 -61 265 -28 121 -55 236 -59 255 -9 46&#10;-101 403 -140 550 -17 63 -37 138 -45 165 -58 218 -98 357 -200 690 -49 162&#10;-238 741 -274 840 -16 44 -43 121 -61 170 -17 50 -38 107 -46 128 -8 20 -20&#10;54 -28 75 -73 195 -86 229 -171 447 -79 202 -224 548 -282 673 -19 40 -38 85&#10;-44 99 -50 132 -420 892 -574 1178 -252 468 -491 869 -771 1290 -342 516 -626&#10;892 -993 1315 -167 192 -592 620 -598 602 -3 -7 2 -72 11 -145 8 -73 29 -260&#10;46 -417 32 -300 51 -470 75 -685 8 -71 21 -197 30 -280 20 -185 42 -389 60&#10;-560 8 -71 24 -218 35 -325 11 -107 23 -211 25 -230 3 -19 12 -100 20 -180 8&#10;-80 22 -208 30 -285 8 -77 19 -180 25 -230 6 -49 17 -155 25 -235 8 -80 19&#10;-185 25 -235 5 -49 17 -151 25 -225 8 -74 22 -201 31 -282 18 -162 15 -199 -9&#10;-123 -9 28 -23 68 -31 90 -8 22 -35 96 -59 165 -78 220 -257 665 -333 828 -19&#10;41 -34 76 -34 78 0 2 -20 47 -45 100 -25 52 -45 97 -45 99 0 15 -302 612 -388&#10;768 -18 31 -46 83 -64 115 -226 412 -498 845 -817 1302 -243 349 -662 890&#10;-902 1165 -15 17 -53 62 -86 100 -684 801 -1686 1729 -2459 2275 -70 50 -132&#10;90 -137 90 -5 0 -7 -12 -4 -27 27 -123 111 -527 118 -563 4 -25 24 -121 44&#10;-215 20 -93 47 -224 60 -290 28 -138 86 -415 110 -525 9 -41 20 -97 25 -125 5&#10;-27 25 -126 45 -220 20 -93 40 -190 45 -215 5 -25 32 -155 60 -290 65 -311 72&#10;-351 67 -356 -2 -2 -25 35 -52 84 -480 859 -1238 1810 -2025 2541 -927 862&#10;-1925 1493 -3013 1907 -93 35 -176 64 -184 64 -18 0 -21 15 45 -240 80 -308&#10;173 -715 242 -1060 38 -190 49 -250 91 -490 61 -348 130 -857 154 -1135 3 -38&#10;8 -92 11 -120 23 -202 39 -973 21 -991 -2 -3 -24 39 -48 93 -74 165 -215 446&#10;-290 580 -40 71 -83 148 -97 173 -14 25 -66 110 -115 190 -507 811 -1112 1507&#10;-1817 2090 -403 334 -751 571 -1235 845 -79 45 -463 238 -535 270 -190 82&#10;-232 100 -308 131 -46 19 -86 34 -89 34 -6 0 3 -760 12 -1040 3 -69 9 -339 15&#10;-600 5 -261 12 -529 15 -595 3 -66 10 -300 16 -520 5 -220 12 -436 14 -480 14&#10;-311 15 -469 3 -451 -7 10 -103 154 -213 320 -516 776 -1019 1414 -1639 2076&#10;-779 831 -1591 1528 -2446 2097 -222 147 -647 403 -671 403 -2 0 -74 -40 -159&#10;-88z m387 -1229 c347 -362 497 -528 794 -873 579 -674 1130 -1381 1612 -2070&#10;116 -166 513 -759 586 -875 25 -38 83 -131 129 -205 93 -148 402 -659 402&#10;-665 0 -2 27 -49 60 -105 33 -56 60 -103 60 -105 0 -1 24 -45 53 -96 79 -139&#10;130 -233 272 -499 133 -250 545 -1100 545 -1125 0 -2 18 -43 40 -91 59 -127&#10;218 -506 290 -694 184 -476 336 -922 461 -1354 58 -199 74 -256 140 -516 28&#10;-107 52 -196 54 -198 4 -4 66 80 126 173 415 639 697 1558 853 2780 16 126 41&#10;352 51 470 4 39 8 88 10 110 15 141 43 617 54 920 17 447 3 1479 -23 1747 -2&#10;27 -1 50 3 52 23 14 422 -381 630 -623 568 -663 1041 -1393 1481 -2286 65&#10;-132 128 -262 140 -290 12 -27 44 -97 70 -155 292 -644 587 -1476 796 -2245 9&#10;-33 22 -80 30 -105 7 -25 41 -160 75 -300 34 -140 66 -272 71 -292 5 -21 12&#10;-38 17 -38 14 0 186 298 269 465 82 165 169 364 216 495 15 41 32 86 38 100&#10;10 25 20 53 64 195 76 241 156 554 194 760 5 28 19 100 30 160 32 176 82 536&#10;95 695 3 41 8 91 11 110 21 168 39 628 39 1005 0 745 -51 1411 -170 2205 -24&#10;160 -75 449 -99 560 -8 36 -11 68 -8 72 8 7 224 -201 388 -372 531 -556 1108&#10;-1295 1558 -1997 25 -40 66 -103 90 -140 98 -154 295 -486 406 -688 147 -266&#10;198 -362 314 -595 136 -273 167 -339 294 -620 179 -400 368 -886 511 -1320 70&#10;-211 105 -322 140 -440 17 -58 35 -118 40 -135 5 -16 19 -66 31 -110 12 -44&#10;28 -100 36 -125 16 -56 122 -481 133 -535 5 -22 20 -94 35 -160 15 -66 33&#10;-149 41 -185 8 -36 21 -103 30 -150 8 -47 22 -121 30 -165 34 -185 45 -245 59&#10;-342 42 -275 45 -297 86 -623 17 -137 39 -373 55 -580 21 -291 25 -331 36&#10;-325 5 4 43 77 85 163 300 618 499 1251 613 1952 32 197 65 464 76 620 4 52 9&#10;104 11 115 2 11 9 161 16 334 8 237 8 391 -1 635 -6 176 -13 335 -15 351 -2&#10;17 -7 71 -11 120 -33 435 -149 1179 -235 1505 -5 19 -27 107 -49 195 -22 88&#10;-58 220 -81 294 -22 74 -40 136 -40 139 0 37 412 -501 657 -858 78 -113 191&#10;-284 253 -380 62 -96 123 -191 135 -210 52 -80 346 -576 402 -680 17 -30 48&#10;-86 69 -125 230 -421 475 -923 671 -1380 102 -238 261 -635 306 -765 9 -25 32&#10;-90 52 -145 30 -83 120 -352 180 -535 16 -51 130 -435 138 -465 2 -11 14 -54&#10;25 -95 45 -164 135 -529 152 -617 5 -26 19 -91 30 -143 23 -103 59 -289 91&#10;-470 64 -355 129 -878 154 -1240 4 -52 9 -108 11 -125 2 -16 9 -160 15 -320&#10;26 -638 -8 -1421 -86 -2023 -26 -202 -62 -435 -94 -616 -19 -102 -21 -141 -8&#10;-125 22 25 247 386 247 394 0 1 25 47 56 101 157 275 358 722 494 1094 87 238&#10;218 657 259 825 5 22 25 103 45 180 135 531 245 1226 297 1865 49 605 49 1473&#10;0 1995 -27 287 -27 283 17 205 10 -19 53 -93 94 -165 236 -411 467 -867 661&#10;-1305 364 -822 640 -1660 836 -2540 104 -468 200 -1063 246 -1535 3 -33 8 -76&#10;10 -95 2 -19 9 -100 15 -180 6 -80 13 -174 16 -209 38 -419 37 -1584 -1 -2001&#10;-3 -30 -9 -122 -15 -205 -6 -82 -14 -190 -20 -240 -5 -49 -12 -121 -16 -160&#10;-3 -38 -7 -77 -9 -85 -1 -8 -6 -46 -9 -85 -13 -127 -65 -521 -91 -690 -38&#10;-247 -45 -287 -65 -400 -12 -66 -26 -145 -31 -175 -5 -30 -13 -77 -19 -105 -5&#10;-27 -26 -129 -45 -225 -37 -188 -52 -261 -86 -410 -11 -52 -25 -113 -29 -136&#10;-18 -88 -141 -586 -185 -749 -73 -274 -87 -323 -99 -365 -8 -25 -21 -70 -29&#10;-100 -93 -324 -201 -673 -337 -1080 -102 -306 -130 -386 -245 -705 -75 -207&#10;-77 -216 -73 -221 7 -6 210 138 336 237 468 370 914 830 1269 1309 393 530&#10;713 1093 1000 1755 99 230 211 518 268 690 13 39 28 81 34 95 11 29 121 375&#10;146 465 10 33 23 80 31 105 114 385 258 1060 328 1540 10 63 21 142 26 175 19&#10;126 54 469 65 640 7 98 13 140 21 132 5 -5 38 -157 54 -252 5 -27 18 -104 30&#10;-170 12 -66 26 -145 30 -175 5 -30 18 -116 30 -190 45 -294 99 -736 125 -1025&#10;4 -38 8 -88 10 -110 3 -22 9 -107 15 -190 6 -82 13 -179 16 -215 41 -501 41&#10;-1676 0 -2165 -3 -38 -11 -128 -16 -200 -6 -71 -12 -146 -15 -165 -2 -19 -7&#10;-64 -10 -100 -35 -379 -124 -957 -200 -1310 -69 -317 -126 -544 -202 -805 -19&#10;-66 -41 -140 -48 -165 -50 -171 -216 -630 -294 -815 -98 -229 -160 -363 -246&#10;-535 -320 -635 -681 -1164 -1122 -1647 -161 -175 -186 -204 -181 -208 2 -3 18&#10;0 34 5 16 6 101 33 189 61 597 190 1190 505 1645 873 204 165 503 452 656 631&#10;293 342 540 731 714 1125 l51 115 -5 -220 c-15 -603 -138 -1148 -456 -2025&#10;-103 -283 -210 -611 -210 -644 0 -11 -71 -51 -232 -130 -228 -113 -544 -284&#10;-703 -382 -44 -28 -102 -63 -129 -79 -86 -53 -439 -289 -521 -350 -438 -322&#10;-706 -548 -1043 -880 -118 -115 -217 -211 -222 -213 -7 -3 -22 88 -35 218 -15&#10;155 -23 463 -16 610 4 91 6 171 3 178 -12 33 -157 -358 -200 -538 -62 -259&#10;-69 -307 -96 -675 -11 -158 20 -527 65 -765 43 -227 145 -591 207 -740 6 -14&#10;32 -79 57 -145 54 -137 259 -562 329 -678 25 -43 46 -80 46 -82 0 -3 25 -46&#10;56 -97 218 -361 492 -744 773 -1083 214 -258 608 -685 824 -892 47 -46 83 -83&#10;80 -83 -4 0 -38 17 -77 39 -158 86 -200 108 -426 221 -210 105 -342 167 -685&#10;323 -236 106 -987 416 -1260 519 -44 17 -100 38 -125 48 -255 99 -639 240&#10;-653 240 -10 0 57 -77 233 -269 63 -70 133 -146 155 -172 22 -25 128 -144 236&#10;-265 107 -120 242 -273 299 -339 58 -66 107 -122 110 -125 16 -13 630 -734&#10;831 -975 229 -275 323 -390 580 -710 127 -158 184 -230 354 -449 180 -233 474&#10;-628 649 -876 67 -95 386 -570 386 -575 0 -2 31 -52 68 -112 135 -214 332&#10;-577 332 -611 0 -7 -19 5 -42 27 -246 229 -622 485 -1108 756 -160 89 -688&#10;356 -865 437 -199 91 -231 106 -305 138 -41 18 -102 45 -135 60 -82 37 -312&#10;136 -410 175 -44 18 -165 67 -270 110 -104 42 -273 108 -375 147 -102 39 -207&#10;80 -235 90 -27 11 -61 23 -75 28 -14 4 -110 39 -215 77 -104 38 -203 73 -219&#10;77 -27 7 -28 6 -15 -11 7 -10 43 -49 80 -88 329 -349 812 -884 1124 -1244 17&#10;-19 48 -56 71 -81 76 -85 280 -325 475 -560 796 -957 1374 -1746 1754 -2395&#10;98 -166 280 -523 272 -532 -3 -3 -59 41 -123 97 -703 607 -1531 1153 -2239&#10;1478 -108 49 -253 108 -485 197 -135 53 -545 164 -557 152 -3 -4 31 -69 77&#10;-144 188 -312 540 -905 540 -909 0 -3 11 -21 23 -42 22 -33 224 -383 276 -474&#10;11 -21 85 -151 164 -290 217 -382 480 -859 649 -1178 25 -47 68 -128 96 -180&#10;144 -271 470 -916 569 -1130 20 -41 60 -126 89 -189 30 -62 54 -114 54 -116 0&#10;-2 17 -41 39 -87 139 -299 379 -909 369 -939 -2 -5 -46 27 -98 72 -52 44 -115&#10;97 -140 118 -98 82 -455 343 -625 457 -698 469 -1424 807 -2105 980 -131 33&#10;-170 40 -170 29 0 -3 9 -22 19 -43 60 -117 364 -848 493 -1182 22 -58 49 -127&#10;60 -155 11 -27 23 -61 28 -75 5 -14 18 -50 30 -80 12 -30 25 -66 30 -80 5 -14&#10;23 -63 40 -110 326 -876 573 -1755 656 -2335 33 -229 56 -588 39 -616 -4 -5&#10;-70 75 -147 178 -503 673 -1216 1387 -1968 1972 -31 24 -56 38 -58 31 -2 -6 1&#10;-30 6 -53 11 -42 37 -204 66 -397 93 -630 132 -1443 107 -2215 -7 -198 -14&#10;-380 -16 -405 -3 -25 -9 -124 -15 -220 -11 -178 -20 -284 -45 -535 -8 -77 -17&#10;-174 -21 -215 -4 -41 -8 -77 -9 -80 -1 -3 -4 -36 -9 -75 -12 -111 -55 -435&#10;-82 -610 -30 -196 -75 -471 -89 -545 -8 -41 -31 -156 -50 -255 -19 -99 -44&#10;-223 -55 -275 -12 -52 -24 -108 -27 -123 -9 -44 -19 -21 -42 98 -102 517 -311&#10;1160 -564 1735 -105 240 -122 277 -254 540 -165 332 -425 793 -438 778 -1 -2&#10;-5 -55 -9 -118 -21 -376 -28 -468 -66 -845 -39 -387 -64 -589 -125 -1005 -9&#10;-58 -20 -130 -25 -160 -5 -30 -16 -97 -25 -147 -24 -146 -46 -271 -62 -358&#10;-25 -134 -103 -526 -117 -590 -8 -33 -21 -94 -30 -135 -9 -41 -23 -102 -31&#10;-135 -8 -33 -28 -118 -45 -190 -17 -71 -33 -139 -36 -150 -171 -717 -496&#10;-1714 -766 -2350 -58 -139 -68 -158 -74 -152 -3 2 -24 62 -49 133 -67 197&#10;-174 497 -215 604 -12 30 -25 66 -30 80 -4 14 -63 171 -130 350 -68 179 -129&#10;341 -136 360 -27 73 -124 325 -181 470 -24 63 -56 144 -70 180 -14 36 -44 115&#10;-68 175 -24 61 -54 139 -68 175 -110 283 -507 1280 -517 1300 -9 16 -7 -30 11&#10;-245 20 -242 23 -951 5 -1240 -16 -250 -47 -584 -66 -710 -5 -33 -16 -109 -25&#10;-170 -24 -167 -64 -395 -90 -517 -8 -38 -22 -101 -31 -140 -27 -127 -105 -440&#10;-131 -528 -13 -47 -31 -107 -38 -135 -93 -345 -327 -963 -527 -1395 -42 -90&#10;-214 -433 -248 -495 -15 -27 -50 -90 -77 -140 -86 -154 -282 -473 -381 -620&#10;-102 -151 -310 -433 -334 -453 -14 -11 -16 47 -21 515 -6 581 -20 828 -73&#10;1333 -27 256 -68 554 -105 755 -11 61 -24 133 -29 160 -57 319 -195 822 -300&#10;1095 -12 30 -25 66 -30 80 -52 158 -309 660 -352 686 -8 5 -10 -52 -5 -232 24&#10;-930 -109 -1815 -391 -2589 -243 -668 -608 -1283 -1047 -1768 -51 -56 -102&#10;-110 -113 -121 -24 -21 -18 -28 -55 69 -130 341 -177 454 -293 690 -366 749&#10;-817 1320 -1367 1732 -76 57 -142 103 -148 103 -25 0 -3 30 53 70 94 68 336&#10;312 415 420 224 305 379 641 473 1027 56 227 100 551 100 731 0 56 4 102 9&#10;102 5 0 33 -28 62 -63 30 -34 56 -64 59 -67 10 -8 200 -248 271 -340 95 -125&#10;205 -278 300 -420 78 -116 103 -155 173 -267 42 -68 169 -292 206 -365 19 -38&#10;39 -67 43 -65 23 7 112 317 142 496 63 373 61 878 -5 1336 -32 225 -40 274&#10;-49 318 -5 23 -17 80 -26 127 -23 113 -136 572 -169 685 -85 290 -198 629&#10;-293 875 -70 183 -150 378 -198 485 -61 137 -63 142 -52 145 13 4 190 -116&#10;301 -204 393 -310 914 -832 1466 -1470 52 -60 96 -103 98 -97 15 45 -226 1139&#10;-312 1421 -8 25 -28 97 -46 160 -226 825 -618 1761 -957 2283 -24 38 -43 72&#10;-41 76 2 4 118 -78 258 -183 141 -105 370 -276 510 -381 140 -104 373 -277&#10;517 -385 l263 -195 149 -350 c82 -192 174 -413 206 -490 31 -77 69 -171 85&#10;-210 50 -121 176 -447 201 -517 7 -21 17 -38 21 -38 4 0 8 1 8 3 0 2 9 75 19&#10;163 11 87 22 200 26 249 4 50 9 98 11 108 2 10 8 120 14 245 40 788 -14 1749&#10;-151 2677 -11 77 -24 167 -29 200 -64 471 -243 1347 -415 2035 -40 162 -83&#10;331 -95 375 -13 44 -33 118 -45 165 -54 200 -203 704 -261 880 -19 57 -34 105&#10;-34 107 0 19 134 -68 240 -156 367 -304 691 -715 1027 -1298 94 -165 324 -611&#10;395 -768 20 -44 53 -116 73 -160 132 -288 359 -861 486 -1225 101 -287 275&#10;-824 338 -1040 17 -58 51 -172 75 -255 24 -82 46 -159 49 -170 2 -11 15 -56&#10;27 -100 12 -44 26 -93 30 -110 4 -16 25 -93 45 -170 49 -185 128 -505 155&#10;-630 13 -55 26 -104 30 -108 4 -4 25 54 48 130 151 508 224 1092 221 1768 -2&#10;366 -31 870 -69 1180 -31 258 -43 354 -60 480 -11 77 -24 167 -30 200 -30 186&#10;-45 274 -67 395 -13 74 -28 158 -33 185 -21 124 -129 639 -165 790 -8 33 -26&#10;110 -40 170 -50 214 -150 605 -215 840 -12 44 -26 94 -30 110 -4 17 -24 86&#10;-45 155 -20 69 -41 139 -45 155 -16 59 -61 211 -74 250 -8 22 -28 87 -46 145&#10;-69 228 -145 459 -237 720 -67 192 -73 210 -66 210 24 0 255 -204 398 -351&#10;242 -249 451 -513 687 -869 85 -129 328 -525 328 -535 0 -2 14 -28 31 -57 231&#10;-391 565 -1098 870 -1843 237 -578 643 -1747 779 -2240 4 -16 24 -84 44 -150&#10;20 -66 66 -231 103 -367 37 -136 71 -244 75 -240 9 9 35 229 47 404 22 297 25&#10;378 24 733 -2 676 -58 1325 -188 2180 -22 142 -70 427 -85 505 -5 25 -19 97&#10;-30 160 -25 134 -87 447 -100 505 -17 77 -40 181 -75 345 -50 228 -239 1004&#10;-289 1185 -21 76 -41 150 -71 260 -14 55 -32 120 -39 145 -8 25 -28 97 -46&#10;160 -18 63 -52 180 -76 260 -23 80 -47 161 -52 180 -18 64 -152 505 -162 530&#10;-5 14 -36 113 -70 220 -34 107 -115 355 -181 551 -65 195 -119 361 -119 368 0&#10;21 155 -127 317 -301 206 -223 380 -427 579 -683 507 -649 1024 -1427 1568&#10;-2359 64 -109 116 -200 116 -202 0 -2 20 -38 45 -80 25 -41 45 -78 45 -80 0&#10;-2 10 -21 23 -42 13 -20 41 -68 62 -107 21 -38 57 -104 80 -145 23 -41 65&#10;-119 94 -172 28 -54 62 -117 75 -140 49 -91 214 -406 307 -588 61 -120 57&#10;-115 64 -108 5 5 -20 125 -65 313 -5 22 -21 90 -35 150 -27 114 -152 616 -185&#10;740 -53 202 -117 433 -177 640 -30 105 -59 204 -63 220 -23 84 -55 187 -167&#10;545 -88 280 -309 936 -358 1060 -8 19 -42 112 -76 205 -153 420 -446 1141&#10;-624 1535 -187 412 -208 456 -380 800 -126 252 -233 458 -320 615 -73 131&#10;-157 278 -195 340 -22 37 -39 69 -37 71 11 11 492 -462 773 -761 290 -309 646&#10;-713 943 -1068 181 -218 506 -625 692 -867 201 -264 298 -393 514 -690 137&#10;-187 131 -184 110 -65 -70 391 -208 878 -343 1211 -313 772 -689 1433 -1211&#10;2129 -182 243 -453 577 -600 740 -30 33 -70 78 -89 100 -330 373 -878 907&#10;-1267 1235 -174 146 -173 147 15 25 271 -176 741 -477 840 -538 30 -19 195&#10;-122 365 -229 279 -174 487 -304 563 -349 15 -9 94 -58 177 -109 164 -101&#10;1101 -662 1125 -673 8 -4 29 -15 45 -26 34 -20 415 -240 484 -279 25 -14 67&#10;-38 93 -53 26 -16 48 -24 48 -19 0 13 -308 421 -465 615 -109 135 -387 469&#10;-405 485 -3 3 -34 39 -70 80 -138 160 -349 391 -580 635 -154 164 -562 569&#10;-740 736 -695 651 -1328 1166 -2075 1688 -99 68 -81 66 95 -14 115 -52 578&#10;-262 740 -335 509 -229 830 -375 908 -411 46 -22 86 -39 88 -39 2 0 88 -39&#10;191 -86 103 -47 229 -104 278 -126 50 -23 128 -58 173 -79 46 -22 86 -39 87&#10;-39 4 0 200 -89 310 -140 164 -76 268 -121 276 -118 22 7 -418 488 -647 708&#10;-254 243 -386 364 -594 545 -585 510 -1233 1015 -1963 1529 -38 26 -67 50 -65&#10;51 2 2 42 -2 88 -9 47 -8 148 -21 225 -30 77 -8 205 -23 285 -31 471 -53 762&#10;-117 941 -206 20 -10 39 -16 41 -13 13 13 -44 240 -99 389 -201 551 -667 1243&#10;-1273 1890 -61 66 -108 121 -103 122 5 2 72 -13 149 -33 76 -19 225 -57 329&#10;-84 185 -47 348 -90 585 -151 63 -17 156 -41 205 -54 172 -44 362 -95 628&#10;-168 147 -41 270 -70 273 -66 14 23 -220 486 -380 752 -39 65 -76 125 -81 135&#10;-14 24 -143 215 -190 282 -175 250 -405 519 -626 735 -262 255 -493 431 -779&#10;594 -69 39 -132 75 -140 81 -15 10 84 9 350 -6 52 -2 210 -9 350 -14 392 -15&#10;1062 -44 1309 -56 84 -5 122 -3 120 4 -8 23 -191 225 -344 380 -287 293 -580&#10;539 -913 766 -97 66 -420 264 -523 319 l-33 18 129 66 c255 128 499 277 745&#10;452 303 217 542 421 835 715 487 487 868 988 1230 1616 121 209 295 544 369&#10;710 16 36 51 115 78 175 46 102 162 383 193 465 7 19 27 73 44 120 48 129 118&#10;330 162 470 22 69 42 131 44 138 12 32 -23 -1 -170 -165 -996 -1106 -1787&#10;-1767 -2640 -2204 -82 -42 -184 -91 -225 -109 -41 -17 -93 -40 -115 -50 -163&#10;-74 -494 -185 -717 -239 -166 -42 -414 -91 -452 -91 -16 0 24 45 154 174 331&#10;328 525 540 811 886 293 354 434 539 712 935 469 666 911 1475 1197 2190 151&#10;379 310 873 380 1185 4 19 18 78 29 130 173 767 215 1538 126 2310 -9 74 -18&#10;144 -22 154 -6 22 -15 7 -62 -104 -112 -263 -391 -833 -554 -1130 -16 -30 -43&#10;-80 -60 -110 -402 -735 -926 -1497 -1346 -1955 -112 -122 -419 -423 -506 -496&#10;-322 -268 -622 -452 -920 -562 -97 -36 -184 -61 -189 -56 -3 2 32 78 76 169&#10;192 392 320 670 486 1060 104 244 309 756 333 830 4 14 22 63 39 110 336 904&#10;614 1918 775 2825 61 343 125 809 150 1090 4 39 8 81 10 95 2 14 12 138 21&#10;275 19 268 26 1013 12 1260 -9 145 -27 377 -33 415 -2 14 -7 52 -10 85 -18&#10;159 -75 469 -90 484 -3 2 -8 2 -11 -2 -3 -3 -58 -160 -121 -349 -113 -338&#10;-175 -521 -235 -688 -51 -144 -148 -413 -164 -452 -8 -21 -20 -55 -28 -75&#10;-232 -612 -473 -1150 -718 -1608 -606 -1130 -1322 -1898 -2175 -2333 -134 -69&#10;-135 -69 -116 11 53 227 188 904 249 1252 8 50 22 124 29 165 15 83 60 365 99&#10;620 23 150 35 237 81 575 30 223 60 482 80 675 21 207 53 568 60 680 4 52 8&#10;111 10 130 3 19 12 175 22 345 24 435 24 1311 0 1660 -10 138 -20 261 -22 275&#10;-2 14 -6 59 -10 100 -9 101 -41 356 -59 466 -29 177 -70 393 -86 454 -5 19&#10;-25 98 -45 174 -54 205 -122 408 -198 586 -43 100 -67 133 -67 93 0 -20 -94&#10;-501 -109 -562 -6 -20 -16 -65 -25 -101 -26 -112 -87 -352 -107 -425 -11 -38&#10;-26 -92 -34 -120 -147 -540 -430 -1237 -707 -1742 -491 -895 -1134 -1613&#10;-1835 -2046 -115 -71 -272 -151 -280 -144 -3 4 7 21 22 38 59 71 172 340 227&#10;539 116 427 191 919 248 1632 23 297 42 936 36 1248 -7 368 -21 721 -36 905&#10;-49 609 -95 951 -186 1400 -52 255 -98 442 -106 429 -3 -5 -9 -29 -12 -54 -23&#10;-155 -75 -410 -121 -590 -14 -52 -27 -106 -31 -120 -27 -106 -140 -468 -193&#10;-620 -321 -918 -822 -1884 -1445 -2785 -475 -688 -1042 -1369 -1639 -1970&#10;l-179 -180 6 60 c3 33 14 152 25 265 129 1313 97 2653 -85 3540 -44 215 -120&#10;495 -179 663 -61 170 -174 410 -245 522 -11 17 -27 43 -36 59 -8 15 -19 24&#10;-23 20 -5 -5 -13 -61 -20 -124 -43 -414 -148 -922 -267 -1290 -198 -618 -379&#10;-1061 -663 -1630 -227 -455 -503 -947 -736 -1310 -111 -174 -134 -210 -212&#10;-329 -45 -70 -95 -146 -113 -171 -17 -25 -80 -116 -140 -203 -114 -165 -292&#10;-410 -370 -512 -26 -33 -72 -93 -103 -134 -31 -40 -57 -65 -57 -56 0 9 16 76&#10;35 148 46 173 105 422 150 627 19 91 40 183 45 205 26 114 108 544 140 730 5&#10;28 18 102 29 165 47 265 130 872 156 1140 4 36 8 76 10 90 2 14 9 84 15 155 6&#10;72 13 150 15 175 47 455 55 1433 15 1925 -35 431 -118 947 -196 1220 -49 174&#10;-107 360 -129 420 -15 39 -30 81 -35 95 -31 95 -199 452 -225 479 -12 12 -13&#10;-14 -8 -165 6 -184 -10 -635 -27 -804 -79 -741 -167 -1190 -366 -1855 -202&#10;-675 -517 -1407 -869 -2020 -201 -350 -398 -650 -635 -964 -267 -355 -421&#10;-533 -758 -871 -243 -243 -387 -376 -396 -362 -2 4 -7 43 -10 87 -3 44 -13&#10;166 -21 270 -8 105 -21 289 -30 410 -8 121 -20 270 -25 330 -5 61 -12 146 -15&#10;190 -3 44 -12 166 -20 270 -34 452 -45 595 -51 670 -3 44 -7 91 -9 105 -2 14&#10;-6 66 -9 115 -6 87 -20 260 -51 640 -8 99 -21 270 -30 380 -9 110 -20 245 -25&#10;300 -5 55 -14 165 -20 245 -6 80 -13 161 -15 180 -2 19 -9 100 -15 180 -6 80&#10;-15 190 -20 245 -5 55 -17 183 -25 285 -26 306 -58 669 -90 1025 -8 88 -21&#10;239 -30 335 -9 96 -20 218 -25 270 -6 52 -14 145 -20 205 -5 61 -16 182 -25&#10;270 -14 143 -34 352 -65 680 -6 61 -12 124 -15 140 -2 17 -9 82 -15 145 -5 63&#10;-12 126 -15 140 -2 14 -9 80 -15 147 -6 67 -12 130 -14 140 -2 10 -7 52 -11&#10;93 -3 41 -13 129 -20 195 -8 66 -21 183 -30 260 -51 453 -109 914 -150 1195&#10;-78 533 -138 831 -196 974 -40 98 -75 101 -115 10 -75 -169 -177 -744 -274&#10;-1539 -16 -137 -37 -304 -45 -370 -21 -179 -63 -548 -89 -795 -38 -355 -90&#10;-876 -121 -1195 -8 -88 -20 -205 -25 -260 -6 -55 -17 -176 -26 -270 -8 -93&#10;-19 -213 -24 -265 -5 -52 -16 -176 -24 -275 -9 -99 -18 -198 -21 -220 -2 -22&#10;-9 -101 -15 -175 -6 -74 -12 -148 -15 -165 -2 -16 -6 -66 -10 -110 -3 -44 -12&#10;-152 -20 -240 -22 -246 -43 -492 -50 -580 -3 -44 -8 -98 -11 -120 -4 -43 -15&#10;-176 -39 -480 -8 -104 -19 -239 -25 -300 -5 -60 -16 -193 -24 -295 -18 -217&#10;-40 -494 -60 -745 -8 -99 -18 -223 -21 -275 -4 -52 -8 -106 -10 -120 -2 -14&#10;-6 -65 -10 -115 -3 -49 -12 -171 -20 -270 -14 -174 -29 -373 -60 -790 -9 -110&#10;-20 -254 -25 -320 -5 -66 -14 -190 -20 -275 -6 -85 -13 -177 -15 -205 -3 -27&#10;-10 -117 -15 -199 -6 -81 -13 -152 -16 -157 -13 -21 -431 381 -669 643 -527&#10;580 -995 1269 -1363 2008 -373 748 -628 1460 -812 2266 -29 127 -92 467 -115&#10;619 -62 413 -88 756 -89 1172 -1 193 -5 339 -10 336 -14 -9 -160 -317 -209&#10;-443 -211 -534 -333 -1140 -389 -1930 -14 -192 -17 -979 -6 -1235 9 -190 27&#10;-486 33 -535 2 -19 6 -69 10 -110 28 -361 123 -1092 191 -1480 9 -47 19 -107&#10;24 -135 39 -230 77 -428 140 -725 50 -237 71 -328 152 -658 44 -178 78 -326&#10;75 -328 -5 -6 -131 155 -279 356 -431 586 -865 1265 -1188 1860 -40 74 -87&#10;160 -103 190 -162 295 -435 882 -567 1220 -110 279 -228 622 -285 825 -10 33&#10;-23 80 -31 105 -83 281 -174 761 -204 1075 -7 66 -14 123 -17 128 -4 7 -63&#10;-65 -63 -77 0 -2 -19 -37 -43 -78 -202 -347 -367 -908 -451 -1528 -29 -214&#10;-36 -275 -52 -460 -42 -489 -52 -1110 -28 -1700 7 -179 15 -352 18 -385 3 -33&#10;11 -132 16 -220 6 -88 13 -171 15 -185 2 -14 6 -59 10 -100 3 -41 13 -136 21&#10;-211 9 -75 14 -146 12 -158 -2 -19 -33 8 -183 161 -339 346 -716 763 -910&#10;1008 -16 20 -64 80 -105 131 -193 240 -356 456 -576 764 -71 100 -308 459&#10;-396 600 -472 757 -903 1662 -1138 2390 -11 33 -26 80 -34 105 -14 42 -89 294&#10;-120 405 -29 100 -105 453 -126 580 -11 72 -23 137 -27 145 -6 17 -51 -150&#10;-94 -355 -59 -277 -113 -613 -144 -895 -9 -80 -20 -181 -25 -225 -5 -44 -14&#10;-150 -20 -235 -6 -85 -12 -175 -15 -200 -28 -278 -38 -1229 -17 -1683 8 -153&#10;15 -286 17 -295 1 -9 6 -64 9 -122 7 -102 43 -490 51 -540 2 -14 6 -50 10 -80&#10;75 -659 241 -1281 401 -1502 19 -28 34 -52 31 -54 -20 -21 -379 196 -601 365&#10;-234 176 -544 470 -754 716 -561 653 -1015 1481 -1336 2436 -121 361 -173 545&#10;-280 989 -31 133 -126 606 -126 632 0 41 -23 9 -67 -92 -233 -544 -367 -1223&#10;-425 -2150 -14 -226 -18 -1090 -5 -1340 12 -262 27 -522 32 -575 2 -27 7 -88&#10;10 -135 18 -243 58 -656 95 -975 37 -317 40 -340 49 -410 6 -38 17 -122 26&#10;-185 9 -63 23 -158 30 -210 8 -52 22 -142 30 -200 21 -140 72 -456 89 -555 8&#10;-44 22 -123 31 -175 48 -274 181 -947 233 -1180 21 -93 25 -126 16 -128 -17&#10;-4 -192 85 -348 178 -211 126 -383 251 -591 432 -804 699 -1471 1787 -2067&#10;3373 -17 44 -39 103 -50 130 -10 28 -32 86 -48 130 -15 44 -40 114 -55 155&#10;-64 177 -164 467 -266 775 -126 376 -129 385 -139 385 -17 0 -73 -285 -95&#10;-485 -3 -33 -8 -71 -10 -85 -7 -43 -25 -279 -33 -420 -9 -178 -9 -855 1 -1045&#10;21 -416 76 -965 127 -1275 5 -30 16 -100 25 -155 65 -411 156 -856 266 -1290&#10;23 -88 45 -178 51 -200 45 -190 203 -716 319 -1065 205 -617 491 -1341 769&#10;-1945 76 -166 185 -395 260 -548 49 -100 87 -184 84 -186 -15 -15 -278 86&#10;-444 170 -338 171 -618 385 -970 738 -378 379 -713 807 -1096 1401 -79 123&#10;-364 596 -364 605 0 2 -20 39 -45 81 -25 41 -45 77 -45 79 0 1 -20 38 -43 81&#10;-185 334 -441 856 -582 1187 -24 56 -41 84 -45 75 -4 -7 -15 -76 -24 -153 -58&#10;-478 -60 -1066 -6 -1535 47 -406 95 -655 216 -1130 39 -153 171 -559 249 -769&#10;416 -1113 1094 -2249 1980 -3317 267 -323 411 -480 744 -818 l246 -248 -53 6&#10;c-303 38 -784 177 -1147 331 -964 410 -1852 1116 -2985 2375 -47 52 -100 110&#10;-118 130 l-33 35 6 -36 c9 -57 163 -509 245 -719 12 -30 27 -71 35 -90 20 -55&#10;181 -431 226 -528 108 -233 265 -536 371 -715 32 -54 58 -100 58 -102 0 -1 16&#10;-29 36 -61 20 -33 46 -75 57 -94 116 -192 394 -584 571 -804 223 -277 620&#10;-690 856 -890 63 -54 126 -108 140 -120 116 -100 436 -332 611 -444 175 -111&#10;453 -266 566 -316 34 -15 41 -22 32 -33 -6 -7 -15 -13 -19 -13 -9 0 -237 -133&#10;-360 -210 -343 -214 -685 -487 -1003 -800 -151 -148 -406 -426 -416 -452 -3&#10;-10 24 -9 349 7 52 3 212 10 355 15 143 6 301 12 350 15 50 3 214 9 365 15&#10;151 6 313 12 360 15 262 14 360 17 360 11 0 -3 -28 -20 -61 -37 -262 -132&#10;-589 -373 -853 -629 -435 -422 -792 -912 -1112 -1525 -88 -170 -186 -384 -179&#10;-394 2 -4 134 28 292 71 270 74 382 104 606 162 51 14 126 33 167 44 120 33&#10;808 210 1004 259 54 13 100 22 102 20 3 -2 -43 -55 -102 -118 -597 -636 -1069&#10;-1334 -1268 -1870 -62 -169 -123 -399 -108 -413 2 -3 21 3 41 13 179 90 478&#10;155 941 205 305 34 428 48 510 62 46 7 86 11 88 10 2 -2 -59 -48 -135 -102&#10;-290 -204 -541 -390 -878 -648 -156 -120 -209 -161 -320 -251 -22 -17 -89 -72&#10;-149 -120 -112 -90 -117 -95 -197 -161 -25 -22 -69 -59 -99 -84 -66 -55 -203&#10;-172 -210 -180 -3 -3 -43 -38 -90 -79 -159 -138 -393 -355 -588 -546 -229&#10;-223 -623 -656 -603 -663 5 -2 58 19 118 46 163 75 312 143 533 242 252 113&#10;292 131 465 210 99 45 218 99 265 120 258 116 322 145 388 176 41 19 75 34 77&#10;34 2 0 41 17 87 39 46 21 124 56 173 79 50 22 140 63 200 90 128 58 578 261&#10;745 337 119 54 160 70 160 62 0 -3 -41 -33 -92 -68 -174 -118 -672 -485 -769&#10;-567 -13 -11 -98 -79 -188 -151 -620 -495 -1353 -1173 -1897 -1756 -82 -88&#10;-176 -189 -210 -225 -33 -36 -118 -130 -189 -210 -70 -80 -142 -161 -159 -180&#10;-149 -168 -457 -543 -641 -781 -94 -121 -255 -342 -255 -350 0 -9 76 34 685&#10;386 145 84 944 563 1115 668 80 49 159 97 175 107 43 25 560 346 620 385 28&#10;18 113 72 190 120 77 48 163 102 190 120 28 17 110 70 182 116 73 46 165 105&#10;205 131 40 26 102 65 138 88 36 22 130 84 210 136 80 52 154 100 165 106 l20&#10;10 -20 -18 c-11 -11 -49 -44 -85 -74 -475 -402 -974 -892 -1392 -1366 -515&#10;-583 -1006 -1273 -1353 -1899 -169 -304 -382 -765 -484 -1045 -23 -63 -47&#10;-126 -52 -139 -19 -46 -122 -377 -143 -461 -4 -14 -16 -61 -28 -105 -11 -44&#10;-24 -96 -28 -115 -40 -187 -60 -282 -65 -320 -4 -25 -9 -53 -12 -64 -12 -41&#10;22 -2 158 184 253 346 526 707 669 885 31 39 99 124 152 190 419 527 876 1057&#10;1297 1505 281 299 757 767 768 756 2 -2 -23 -48 -55 -103 -256 -429 -576&#10;-1056 -870 -1708 -91 -202 -309 -717 -396 -940 -48 -121 -92 -231 -98 -245&#10;-16 -39 -156 -412 -200 -535 -145 -401 -304 -878 -449 -1345 -16 -52 -36 -115&#10;-43 -140 -8 -25 -21 -70 -30 -100 -8 -30 -29 -100 -45 -155 -42 -142 -138&#10;-486 -175 -625 -8 -30 -24 -91 -36 -135 -95 -350 -295 -1193 -285 -1203 7 -7&#10;3 -13 69 118 73 143 180 349 216 415 15 28 48 88 72 135 69 130 122 229 228&#10;420 127 228 147 264 181 322 16 27 29 51 29 53 0 7 390 666 492 830 442 712&#10;861 1314 1287 1850 112 140 101 127 227 275 219 257 564 614 572 591 2 -6 -43&#10;-152 -101 -324 -58 -171 -139 -420 -182 -552 -42 -132 -81 -253 -87 -270 -11&#10;-34 -143 -465 -163 -535 -7 -25 -30 -101 -50 -170 -21 -69 -41 -138 -45 -155&#10;-4 -16 -32 -118 -63 -225 -30 -107 -58 -206 -61 -220 -4 -14 -13 -47 -20 -75&#10;-44 -159 -66 -245 -150 -580 -103 -411 -139 -565 -231 -985 -40 -184 -117&#10;-565 -135 -675 -5 -27 -18 -104 -30 -170 -32 -180 -79 -469 -104 -640 -66&#10;-448 -120 -967 -140 -1350 -3 -55 -9 -145 -12 -200 -11 -166 -8 -828 5 -1015&#10;14 -203 48 -530 58 -556 4 -11 14 15 28 72 29 115 95 350 150 534 24 80 48&#10;161 53 180 153 541 476 1472 759 2185 52 131 255 607 328 770 506 1125 1056&#10;2008 1599 2564 147 149 375 351 399 351 3 0 -28 -98 -69 -217 -80 -231 -165&#10;-490 -219 -663 -40 -127 -131 -427 -138 -455 -3 -11 -30 -108 -61 -215 -69&#10;-240 -79 -277 -115 -415 -78 -300 -94 -364 -136 -540 -69 -288 -73 -304 -90&#10;-385 -9 -41 -20 -91 -25 -110 -27 -105 -148 -737 -186 -975 -124 -767 -179&#10;-1382 -182 -2020 -1 -290 15 -644 38 -830 51 -405 97 -642 182 -928 23 -76 44&#10;-134 48 -130 4 4 17 53 30 108 45 203 155 637 230 910 12 44 25 89 27 100 5&#10;20 49 170 78 270 8 28 30 102 49 165 94 317 310 975 371 1130 8 19 32 86 55&#10;149 73 202 218 568 306 771 123 284 157 358 289 625 450 907 902 1519 1385&#10;1875 102 75 137 96 145 88 3 -2 -11 -51 -29 -109 -75 -228 -219 -720 -313&#10;-1069 -60 -226 -207 -829 -233 -960 -5 -25 -16 -76 -25 -115 -78 -349 -197&#10;-986 -244 -1305 -32 -218 -62 -431 -75 -540 -8 -69 -20 -164 -26 -211 -29&#10;-234 -66 -701 -80 -1009 -19 -382 -9 -1201 15 -1360 2 -14 6 -63 10 -110 6&#10;-81 28 -287 40 -377 4 -24 10 -43 14 -43 4 0 13 17 20 38 75 211 284 728 492&#10;1217 l150 350 315 235 c174 129 522 388 773 576 251 187 457 337 459 333 2 -4&#10;-21 -44 -51 -90 -183 -286 -422 -774 -587 -1199 -136 -351 -274 -759 -359&#10;-1065 -17 -60 -42 -150 -56 -199 -42 -149 -142 -562 -180 -741 -19 -93 -42&#10;-197 -49 -230 -30 -132 -79 -415 -73 -421 4 -4 8 -5 10 -3 14 20 214 250 347&#10;399 426 476 865 906 1199 1170 113 90 303 220 313 214 4 -3 -4 -30 -18 -62&#10;-386 -861 -671 -1815 -779 -2607 -32 -231 -43 -412 -43 -690 1 -390 26 -602&#10;106 -895 29 -105 69 -214 79 -217 4 -2 24 27 43 64 46 89 169 306 204 363 16&#10;25 43 67 60 95 90 144 227 342 355 515 171 229 434 550 452 550 5 0 9 -46 9&#10;-102 0 -192 45 -514 105 -751 147 -579 422 -1042 813 -1371 45 -38 82 -72 82&#10;-75 -1 -3 -29 -24 -63 -46 -406 -260 -829 -698 -1160 -1201 -223 -338 -441&#10;-767 -592 -1159 -47 -122 -63 -159 -72 -162 -12 -4 -201 216 -318 372 -470&#10;624 -798 1339 -985 2145 -50 217 -54 235 -100 510 -14 82 -48 363 -55 460 -4&#10;47 -9 99 -11 115 -11 89 -22 596 -17 801 5 178 3 235 -5 230 -17 -10 -129&#10;-203 -195 -333 -196 -392 -348 -859 -473 -1458 -34 -162 -70 -383 -114 -690&#10;-14 -101 -47 -405 -56 -510 -3 -49 -8 -98 -10 -108 -2 -10 -8 -102 -14 -205&#10;-6 -103 -13 -207 -16 -232 -3 -25 -8 -283 -11 -575 l-6 -529 -29 34 c-205 240&#10;-506 702 -776 1190 -36 67 -207 409 -250 500 -378 816 -634 1638 -787 2520&#10;-30 177 -50 319 -85 620 -33 280 -45 556 -45 1020 0 403 5 557 25 804 6 66 8&#10;121 6 123 -2 2 -71 -166 -154 -374 -134 -337 -183 -462 -347 -878 -71 -180&#10;-132 -336 -158 -405 -14 -36 -45 -117 -70 -180 -25 -63 -71 -182 -102 -265&#10;-32 -82 -65 -170 -75 -195 -10 -25 -75 -198 -144 -385 -70 -187 -133 -356&#10;-141 -375 -44 -111 -168 -459 -221 -620 -54 -161 -54 -162 -70 -149 -8 6 -14&#10;16 -14 21 0 5 -24 66 -54 136 -79 189 -149 370 -266 692 -71 196 -232 691&#10;-279 855 -10 39 -31 111 -46 160 -60 206 -152 560 -250 970 -67 280 -182 863&#10;-235 1185 -60 368 -75 466 -124 845 -50 380 -94 858 -117 1260 -6 110 -12 201&#10;-14 203 -3 4 -95 -135 -95 -143 0 -3 -17 -33 -38 -67 -37 -61 -50 -83 -154&#10;-273 -60 -109 -271 -531 -317 -635 -203 -456 -316 -745 -436 -1120 -90 -280&#10;-167 -570 -215 -815 -24 -119 -34 -142 -43 -98 -3 15 -15 71 -27 123 -22 103&#10;-51 246 -76 380 -9 47 -22 117 -29 155 -12 60 -51 294 -85 510 -40 256 -97&#10;710 -124 995 -30 309 -36 389 -51 615 -50 775 -41 1643 25 2305 32 318 60 519&#10;128 904 6 34 5 34 -88 -38 -716 -555 -1430 -1273 -1937 -1948 -77 -103 -143&#10;-184 -147 -181 -17 18 2 363 34 588 83 586 299 1371 625 2270 20 55 41 111 45&#10;125 10 27 28 75 58 155 11 28 41 106 66 174 26 69 55 145 66 170 10 25 50 125&#10;88 221 130 326 288 702 376 894 20 43 36 80 36 82 0 25 -454 -102 -721 -201&#10;-277 -103 -668 -282 -903 -414 -60 -33 -111 -61 -113 -61 -9 0 -369 -221 -488&#10;-300 -184 -122 -236 -159 -450 -319 -183 -137 -197 -148 -365 -290 -52 -44&#10;-96 -78 -98 -76 -17 17 196 558 386 980 47 104 67 148 167 360 116 246 423&#10;855 563 1117 27 51 73 138 102 193 30 55 131 242 225 415 243 443 236 431 262&#10;472 13 21 23 40 23 42 0 2 33 62 73 133 41 70 88 153 105 183 16 31 115 202&#10;218 380 103 179 196 341 206 360 11 19 155 261 320 538 166 276 298 505 295&#10;509 -4 3 -26 1 -49 -5 -24 -6 -90 -23 -148 -38 -105 -26 -295 -84 -360 -109&#10;-19 -7 -73 -27 -120 -45 -784 -293 -1739 -890 -2588 -1618 -73 -63 -135 -112&#10;-138 -109 -7 6 82 188 178 367 295 544 852 1336 1533 2179 136 168 569 686&#10;685 819 69 79 143 165 165 192 65 78 517 586 689 775 83 90 273 296 463 499&#10;41 43 72 80 70 83 -6 5 -115 -31 -292 -97 -77 -29 -151 -56 -165 -60 -14 -5&#10;-47 -17 -75 -28 -27 -11 -133 -51 -235 -90 -165 -63 -381 -149 -644 -256 -186&#10;-76 -397 -168 -691 -301 -755 -341 -1411 -706 -1838 -1023 -95 -70 -314 -255&#10;-329 -276 -5 -7 -8 -5 -8 4 0 38 225 449 375 685 368 578 817 1194 1434 1964&#10;108 134 207 258 221 275 156 196 1136 1358 1169 1386 4 3 51 57 106 120 149&#10;172 387 439 600 675 249 275 333 370 330 373 -3 4 -38 -8 -168 -54 -46 -17&#10;-425 -160 -487 -184 -25 -10 -81 -31 -125 -48 -138 -52 -613 -243 -750 -302&#10;-11 -4 -108 -45 -215 -90 -107 -45 -233 -100 -278 -121 -46 -22 -86 -39 -88&#10;-39 -27 0 -744 -350 -975 -476 -75 -41 -138 -74 -140 -74 -2 0 88 93 201 208&#10;490 495 840 909 1161 1372 111 159 133 193 231 345 189 296 396 695 512 990&#10;26 66 54 136 61 155 129 322 240 819 260 1160 13 223 14 270 5 410 -26 390&#10;-103 720 -243 1049 -53 123 -56 117 -45 -84 7 -130 5 -285 -7 -480 -11 -174&#10;-34 -355 -45 -355 -4 0 -50 44 -102 98 -197 202 -419 408 -603 561 -55 46&#10;-110 92 -122 102 -25 21 -168 132 -263 205 -266 203 -643 454 -965 640 -224&#10;129 -307 174 -572 304 -148 73 -223 115 -223 126 0 34 -74 264 -188 584 -131&#10;365 -178 506 -231 680 -17 58 -38 125 -46 150 -64 201 -148 624 -180 905 -15&#10;133 -33 555 -23 555 3 0 22 -39 43 -87 204 -479 524 -948 935 -1367 494 -504&#10;1036 -864 1720 -1143 149 -62 580 -206 588 -198 3 2 -30 42 -72 87 -76 82&#10;-294 330 -372 424 -209 251 -499 683 -699 1041 -72 128 -254 489 -300 593&#10;-170 391 -267 649 -410 1090 -27 85 -109 384 -145 530 -66 264 -86 359 -135&#10;620 -55 291 -59 318 -105 630 -157 1085 -171 2548 -34 3820 29 274 72 611 104&#10;820 12 74 25 160 30 190 24 157 100 557 110 584 8 20 8 20 13 -4 3 -14 9 -68&#10;12 -120 18 -277 84 -817 124 -1027 5 -26 17 -91 26 -143 61 -344 148 -731 240&#10;-1070 65 -240 105 -372 200 -657 266 -794 613 -1523 1023 -2153 291 -447 589&#10;-816 952 -1180 173 -174 263 -257 460 -424 25 -21 135 -109 215 -171 86 -68&#10;258 -186 262 -181 5 5 -98 306 -142 416 -32 82 -212 615 -313 930 -29 89 -164&#10;538 -198 660 -51 176 -80 280 -98 350 -8 30 -24 91 -36 135 -37 136 -164 652&#10;-179 725 -8 45 -53 247 -71 326 -10 41 -66 329 -95 479 -212 1130 -308 2168&#10;-300 3225 6 631 27 1004 91 1560 8 74 20 167 25 205 6 39 14 102 19 140 60&#10;455 197 1127 330 1610 12 44 25 89 27 100 25 98 200 665 225 725 5 14 20 56&#10;33 95 171 516 557 1395 858 1950 136 252 154 283 250 448 44 75 82 135 84 133&#10;2 -2 -3 -88 -12 -192 -81 -954 -47 -2018 94 -2919 11 -71 23 -148 27 -170 23&#10;-149 119 -633 144 -725 6 -19 28 -107 49 -195 105 -426 268 -915 443 -1325&#10;130 -307 371 -775 504 -979 21 -31 58 -87 83 -126 25 -38 46 -72 48 -74 13&#10;-19 10 25 -7 125 -72 403 -130 857 -155 1209 -4 50 -8 108 -11 130 -10 104&#10;-24 549 -24 805 0 263 14 737 25 820 2 19 7 76 10 125 33 486 138 1218 245&#10;1705 12 52 25 117 30 143 23 114 126 527 185 737 106 382 303 975 430 1300&#10;107 274 134 341 212 525 229 539 523 1134 801 1625 36 63 76 134 88 157 36 63&#10;250 418 302 500 119 187 293 450 395 597 104 151 443 608 492 665 13 14 46 54&#10;75 89 28 35 54 62 56 59 2 -2 -14 -64 -36 -138 -42 -137 -132 -484 -149 -574&#10;-6 -27 -19 -93 -31 -145 -85 -389 -154 -876 -190 -1350 -99 -1312 72 -2558&#10;495 -3605 31 -77 70 -168 86 -203 16 -35 29 -66 29 -68 0 -9 161 -329 170&#10;-338 9 -9 14 31 30 259 20 291 55 618 101 960 44 326 73 498 149 885 65 333&#10;185 827 271 1125 16 55 37 125 45 155 222 771 560 1628 960 2430 132 263 226&#10;440 392 735 59 104 273 461 329 548 23 37 64 100 89 140 455 710 1043 1461&#10;1579 2017 190 198 362 363 368 353 3 -4 -4 -48 -14 -98 -85 -420 -174 -1058&#10;-214 -1555 -4 -41 -8 -93 -11 -115 -8 -80 -24 -377 -35 -660 -10 -263 -7 -849&#10;6 -990 3 -27 10 -126 15 -220 20 -326 66 -716 120 -1010 12 -60 25 -132 30&#10;-160 74 -402 226 -907 390 -1290 96 -227 338 -676 384 -714 13 -11 16 -9 20&#10;11 60 262 199 796 271 1038 132 441 364 1113 490 1415 167 399 180 430 292&#10;675 45 96 261 532 311 625 85 160 135 249 159 287 12 21 23 40 23 43 0 15 265&#10;444 405 656 228 342 545 762 746 984 275 306 578 603 601 589 5 -3 7 -25 4&#10;-48 -25 -189 -42 -1255 -26 -1696 10 -266 44 -889 54 -975 2 -16 7 -64 11&#10;-105 19 -218 64 -590 95 -790 12 -74 25 -162 30 -195 11 -73 84 -443 106 -535&#10;188 -799 411 -1357 722 -1807 58 -84 82 -114 82 -99 0 17 130 511 167 636 14&#10;47 27 94 30 105 23 92 204 649 282 865 91 254 100 277 251 655 59 149 127 313&#10;150 365 23 52 66 149 95 215 187 423 464 982 728 1465 761 1394 1836 2941&#10;2921 4204 158 183 308 354 431 492 262 292 643 684 666 684 9 0 111 -98 226&#10;-217z m-9263 -15320 c140 -287 421 -676 711 -983 365 -387 911 -858 1337&#10;-1155 32 -22 95 -66 140 -98 185 -131 472 -318 676 -441 65 -39 92 -51 92 -40&#10;0 8 -14 97 -30 197 -58 348 -112 767 -135 1052 -4 44 -8 98 -11 120 -24 227&#10;-45 1077 -27 1088 5 3 31 -31 58 -76 123 -207 393 -602 587 -860 477 -632&#10;1059 -1243 1603 -1682 366 -296 763 -552 1140 -736 257 -125 349 -162 353&#10;-142 2 8 -5 60 -17 116 -70 351 -141 805 -185 1182 -58 506 -70 691 -70 1169&#10;-1 271 3 420 9 422 6 2 32 -38 59 -89 133 -250 331 -557 529 -822 100 -132&#10;351 -445 399 -497 7 -7 40 -45 73 -83 289 -337 839 -884 1256 -1250 200 -175&#10;209 -183 314 -269 55 -44 114 -96 132 -113 17 -18 37 -33 43 -33 6 0 26 15 43&#10;33 18 17 77 69 132 113 121 99 131 108 370 319 624 552 1219 1183 1644 1745&#10;232 306 399 564 557 858 31 56 60 100 65 96 18 -10 10 -670 -11 -986 -11 -164&#10;-22 -312 -25 -330 -2 -18 -9 -82 -15 -143 -17 -180 -74 -608 -105 -787 -36&#10;-213 -47 -274 -81 -456 -19 -106 -34 -197 -32 -202 7 -19 445 185 633 295 33&#10;19 67 38 76 42 21 10 134 81 252 158 798 520 1620 1344 2325 2332 117 164 326&#10;480 398 600 38 65 50 79 56 65 11 -26 6 -570 -8 -802 -13 -230 -39 -546 -54&#10;-660 -5 -41 -17 -133 -25 -205 -22 -180 -62 -453 -91 -620 -33 -190 -34 -181&#10;29 -144 192 114 595 378 804 527 705 505 1280 1029 1694 1547 135 169 318 451&#10;400 618 18 37 37 67 42 67 5 0 6 -35 3 -77 -3 -43 -11 -152 -17 -243 -5 -91&#10;-12 -176 -13 -190 -2 -14 -7 -63 -11 -110 -23 -289 -97 -842 -155 -1165 -12&#10;-66 -25 -142 -30 -170 -9 -53 -59 -302 -85 -422 -13 -63 -48 -215 -102 -441&#10;-8 -35 -13 -66 -10 -69 6 -5 157 37 282 79 376 125 890 360 1293 592 672 386&#10;1404 925 1989 1464 67 61 126 112 131 112 24 0 89 -454 114 -795 14 -189 17&#10;-852 5 -1070 -15 -294 -48 -727 -61 -830 -3 -16 -7 -61 -11 -100 -3 -38 -10&#10;-101 -16 -140 -5 -38 -18 -146 -29 -240 -11 -93 -27 -215 -35 -270 -36 -242&#10;-76 -507 -90 -585 -56 -319 -80 -454 -106 -590 -31 -162 -41 -210 -88 -425&#10;-16 -71 -27 -132 -25 -134 13 -14 480 54 719 105 727 156 1467 479 2008 877&#10;59 44 110 78 112 76 3 -4 -20 -99 -85 -344 -72 -278 -262 -860 -390 -1195&#10;-200 -528 -362 -898 -597 -1372 -68 -135 -123 -249 -123 -253 0 -11 309 5 505&#10;26 235 25 497 69 710 119 186 43 374 93 497 132 54 17 101 29 104 25 15 -15&#10;-126 -353 -257 -617 -76 -152 -113 -223 -247 -460 -249 -442 -691 -1061 -1146&#10;-1605 -191 -228 -325 -377 -619 -686 l-158 -167 -492 -6 c-271 -3 -514 -8&#10;-542 -10 -27 -3 -115 -10 -195 -16 -271 -21 -650 -70 -925 -120 -60 -12 -132&#10;-25 -160 -30 -106 -19 -367 -82 -500 -122 -133 -39 -230 -76 -256 -97 -20 -16&#10;-15 -17 123 -34 203 -25 324 -42 648 -88 157 -22 312 -44 345 -49 33 -5 121&#10;-18 195 -30 74 -12 162 -25 195 -30 71 -11 433 -73 555 -95 47 -8 123 -22 170&#10;-31 105 -18 563 -110 645 -129 33 -7 94 -21 135 -30 345 -77 538 -127 865&#10;-225 249 -74 432 -136 600 -205 164 -66 419 -191 407 -199 -5 -3 -106 -10&#10;-223 -16 -118 -5 -243 -12 -279 -15 -36 -2 -175 -9 -310 -15 -135 -6 -315 -15&#10;-400 -20 -85 -5 -220 -12 -300 -15 -80 -4 -170 -8 -200 -10 -30 -2 -116 -6&#10;-190 -9 -201 -9 -283 -17 -274 -25 5 -5 38 -16 74 -25 195 -52 579 -173 840&#10;-265 358 -125 747 -288 1080 -452 136 -67 192 -96 375 -199 122 -68 386 -240&#10;490 -318 186 -141 386 -330 496 -469 77 -97 142 -193 136 -200 -3 -3 -29 2&#10;-59 10 -47 14 -166 41 -358 83 -288 64 -765 151 -1030 188 -227 33 -258 36&#10;-450 55 -241 24 -509 37 -495 24 6 -5 51 -40 100 -78 504 -385 1196 -1041&#10;1611 -1530 175 -206 420 -576 397 -599 -3 -3 -20 5 -37 17 -83 62 -451 275&#10;-592 342 -331 157 -556 247 -829 331 -119 37 -331 91 -447 114 -57 11 -125 25&#10;-153 30 -193 38 -395 54 -695 54 -317 0 -421 -9 -675 -55 -218 -40 -520 -128&#10;-674 -195 -29 -13 -55 -24 -57 -24 -14 0 4 26 64 92 37 41 141 157 232 258 91&#10;101 190 212 220 245 30 33 91 101 135 150 44 49 103 114 131 144 125 136 194&#10;217 194 225 0 17 -345 -21 -530 -59 -658 -137 -1395 -472 -2144 -975 -170&#10;-114 -594 -424 -651 -477 -11 -10 -43 -36 -70 -58 -64 -50 -152 -126 -227&#10;-192 -63 -58 -81 -65 -74 -30 3 12 10 72 15 132 6 61 18 173 26 250 8 77 21&#10;210 30 295 8 85 20 196 25 245 5 50 24 230 41 400 17 171 35 351 40 400 21&#10;212 22 235 10 235 -15 0 -411 -395 -656 -655 -429 -455 -595 -626 -910 -940&#10;-410 -411 -664 -649 -924 -865 -30 -25 -70 -58 -89 -75 -79 -67 -322 -251&#10;-457 -345 -655 -455 -1204 -612 -1617 -463 -138 49 -281 145 -343 228 -76 103&#10;-159 322 -230 605 -19 80 -40 161 -45 180 -8 32 -55 266 -95 475 -59 314 -195&#10;1293 -195 1409 0 50 -23 43 -32 -10 -3 -21 -16 -88 -27 -149 -60 -318 -132&#10;-764 -165 -1030 -9 -71 -21 -164 -26 -205 -39 -301 -54 -554 -54 -933 -1 -380&#10;-1 -388 -21 -392 -157 -30 -411 -55 -564 -55 -147 0 -321 29 -436 71 -388 143&#10;-664 399 -845 784 -106 224 -247 724 -335 1185 -32 170 -48 231 -55 223 -15&#10;-15 -129 -369 -149 -459 -42 -191 -53 -361 -48 -691 4 -304 13 -404 53 -623&#10;37 -202 116 -469 188 -635 24 -55 32 -83 25 -92 -16 -19 -284 -128 -394 -161&#10;-155 -46 -172 -50 -301 -71 -121 -21 -354 -29 -354 -13 0 4 -40 8 -90 8 -49 0&#10;-90 -4 -90 -8 0 -4 -52 -8 -115 -8 -232 0 -497 62 -782 182 -78 32 -146 65&#10;-152 71 -6 8 5 45 35 117 99 232 175 538 214 861 16 134 21 234 21 432 0 252&#10;-1 285 -22 457 -18 148 -67 337 -138 530 -18 47 -34 91 -37 99 -2 8 -7 12 -10&#10;9 -2 -3 -22 -93 -44 -199 -33 -170 -91 -426 -134 -599 -53 -215 -140 -476&#10;-202 -608 -221 -473 -605 -772 -1089 -848 -176 -27 -498 -10 -760 41 -20 4&#10;-20 12 -21 397 0 325 -4 432 -22 620 -24 246 -46 443 -62 553 -5 39 -19 135&#10;-30 215 -11 80 -25 170 -30 200 -5 30 -19 111 -30 180 -20 126 -57 330 -89&#10;493 -18 90 -34 116 -39 62 -13 -156 -113 -913 -142 -1085 -5 -30 -16 -98 -25&#10;-150 -75 -450 -160 -830 -245 -1090 -81 -251 -143 -358 -254 -442 -467 -351&#10;-1129 -207 -2006 435 -555 407 -1134 957 -2235 2122 -204 215 -566 582 -622&#10;629 -18 16 -37 26 -40 22 -6 -5 -2 -55 32 -376 7 -74 21 -207 30 -295 8 -88&#10;22 -227 30 -310 9 -82 22 -213 30 -290 8 -77 21 -210 30 -295 29 -291 36 -355&#10;40 -382 6 -40 -9 -35 -68 20 -80 75 -326 276 -487 398 -473 360 -910 634&#10;-1375 864 -466 230 -829 361 -1235 443 -212 43 -530 79 -530 60 0 -5 55 -70&#10;123 -144 67 -74 239 -266 382 -425 143 -159 276 -307 296 -329 142 -157 179&#10;-199 179 -207 0 -11 -1 -11 -61 16 -202 88 -588 190 -839 221 -30 4 -64 9 -75&#10;11 -74 14 -380 25 -550 20 -446 -14 -874 -94 -1340 -251 -395 -133 -898 -379&#10;-1221 -596 -40 -26 -74 -45 -78 -42 -6 7 56 125 112 213 250 395 818 997 1487&#10;1576 176 152 342 290 440 363 39 30 72 56 75 58 16 17 -516 -24 -800 -62 -488&#10;-65 -1133 -187 -1533 -291 -33 -9 -61 -14 -63 -11 -3 2 13 31 35 64 189 285&#10;510 570 946 840 385 238 970 509 1555 719 292 105 897 294 941 294 10 0 19 5&#10;19 10 0 6 -1 10 -2 10 -8 2 -397 21 -678 35 -179 8 -354 17 -390 20 -36 2&#10;-173 9 -305 15 -132 5 -271 12 -310 15 -38 3 -164 10 -279 15 -115 6 -212 13&#10;-217 16 -19 11 356 184 561 258 41 15 86 32 99 37 49 20 455 145 561 173 559&#10;148 1025 249 1710 371 117 21 600 100 735 120 61 9 137 20 170 25 193 30 725&#10;103 923 127 137 17 143 18 123 34 -71 57 -538 183 -946 255 -288 50 -634 94&#10;-895 114 -80 6 -167 13 -195 16 -27 3 -271 8 -542 11 l-492 5 -167 177 c-210&#10;221 -320 341 -473 516 -230 262 -585 712 -784 994 -71 101 -309 456 -352 527&#10;-16 27 -51 84 -77 127 -26 43 -48 80 -48 82 0 2 -28 50 -62 107 -171 288 -490&#10;979 -464 1005 3 4 52 -8 109 -26 56 -17 122 -38 147 -45 25 -8 104 -28 175&#10;-45 72 -18 146 -36 165 -41 19 -5 80 -18 135 -29 89 -17 145 -27 345 -61 190&#10;-33 740 -73 740 -54 0 4 -51 109 -113 233 -98 195 -159 322 -292 616 -15 33&#10;-36 82 -47 110 -11 27 -30 72 -42 100 -20 43 -166 408 -213 530 -8 22 -21 56&#10;-29 75 -67 178 -246 707 -289 860 -7 25 -28 95 -45 155 -63 217 -130 478 -125&#10;484 2 2 53 -32 112 -76 577 -424 1367 -757 2138 -903 214 -40 579 -89 590 -78&#10;2 2 0 20 -5 39 -13 48 -65 295 -101 479 -28 146 -37 195 -74 400 -21 117 -82&#10;492 -100 620 -9 58 -20 130 -25 160 -39 227 -113 930 -140 1320 -23 332 -33&#10;891 -21 1195 8 204 45 585 71 725 4 25 16 89 26 143 10 53 22 97 27 97 4 0 63&#10;-51 130 -112 491 -452 1106 -920 1687 -1283 420 -263 874 -495 1300 -665 159&#10;-64 541 -190 575 -190 7 0 4 30 -12 93 -113 453 -217 989 -283 1457 -11 80&#10;-24 177 -30 215 -26 184 -72 659 -85 890 -4 55 -8 130 -11 168 -2 37 -1 67 4&#10;67 4 0 20 -26 36 -57z m-16954 -13643 c313 -53 613 -150 966 -311 159 -73 363&#10;-176 426 -216 21 -12 40 -23 43 -23 4 0 85 -47 181 -105 399 -240 847 -559&#10;1249 -889 131 -108 450 -381 519 -445 27 -25 57 -53 66 -61 90 -82 163 -151&#10;262 -248 l117 -115 -36 -70 c-81 -162 -259 -440 -411 -640 l-74 -98 -131 128&#10;c-564 547 -1396 1068 -2144 1344 -224 83 -470 153 -678 193 -137 26 -301 47&#10;-346 44 l-44 -3 80 -48 c44 -26 114 -70 155 -97 41 -27 81 -53 89 -56 41 -20&#10;652 -435 685 -464 4 -5 -6 -45 -23 -90 -131 -339 -81 -795 145 -1318 127 -295&#10;287 -513 434 -591 73 -39 90 -40 90 -3 0 58 -36 269 -80 472 -84 387 -93 452&#10;-94 665 0 201 12 280 64 400 l20 46 97 -78 c234 -185 544 -456 750 -656 207&#10;-202 423 -445 423 -477 0 -12 -1529 -1553 -1545 -1558 -18 -4 -592 745 -840&#10;1095 -706 999 -1133 1827 -1259 2444 -71 351 -60 520 61 923 137 458 336 819&#10;499 904 51 27 134 28 284 2z m52258 1 c212 -109 478 -667 588 -1231 63 -325&#10;-14 -732 -238 -1265 -206 -488 -544 -1065 -1037 -1769 -90 -128 -559 -756&#10;-651 -872 -36 -44 -92 -115 -125 -158 -33 -42 -64 -75 -70 -74 -19 5 -1545&#10;1547 -1545 1561 0 44 423 487 696 728 140 124 366 314 502 422 l72 58 20 -46&#10;c51 -120 64 -200 64 -395 0 -190 -12 -290 -65 -535 -66 -303 -109 -543 -109&#10;-612 0 -77 199 63 320 227 129 173 281 518 356 805 43 169 64 317 64 471 0&#10;162 -16 265 -61 387 -17 45 -32 89 -35 97 -8 24 582 427 931 637 l80 48 -44 3&#10;c-77 6 -327 -35 -545 -89 -726 -180 -1540 -599 -2236 -1154 -95 -75 -290 -241&#10;-310 -264 -3 -3 -51 -50 -107 -105 l-101 -98 -74 98 c-156 208 -295 425 -427&#10;669 l-22 40 138 135 c300 292 697 638 1053 915 232 180 222 172 361 272 197&#10;142 474 324 665 439 96 57 176 104 179 104 2 0 28 14 57 31 138 82 553 277&#10;712 335 449 163 838 239 944 185z m-36689 -4266 c-2 -5 -19 -46 -39 -90 -91&#10;-196 -130 -374 -130 -589 0 -320 89 -588 280 -841 404 -535 1122 -703 1725&#10;-405 370 183 639 522 734 924 12 48 21 96 21 107 0 27 14 24 79 -15 117 -70&#10;423 -237 586 -320 l170 -86 52 -82 c154 -245 189 -447 100 -578 -69 -104 -519&#10;-249 -1002 -324 -285 -44 -443 -56 -775 -62 -527 -9 -977 55 -1416 202 -801&#10;267 -1367 790 -1668 1542 -26 63 -46 122 -46 132 0 67 304 207 775 357 61 19&#10;135 43 165 53 30 10 105 29 165 44 204 47 228 51 224 31z m20921 1 c209 -41&#10;396 -96 750 -223 316 -113 500 -210 500 -263 0 -42 -133 -341 -218 -490 -38&#10;-67 -160 -249 -201 -300 -74 -92 -88 -108 -201 -221 -311 -312 -650 -517&#10;-1108 -669 -404 -133 -841 -198 -1337 -197 -306 0 -558 20 -840 63 -485 76&#10;-933 220 -1002 324 -89 131 -51 342 103 584 l49 76 170 86 c94 47 195 100 225&#10;117 155 85 377 211 395 223 27 19 45 17 45 -5 0 -11 9 -59 21 -107 61 -256&#10;180 -468 371 -662 372 -377 932 -506 1437 -331 479 166 828 578 916 1083 9 52&#10;15 148 15 232 0 216 -39 393 -129 589 -37 79 -46 105 -38 105 1 0 36 -7 77&#10;-14z m-20359 -28 c52 -17 107 -65 139 -122 25 -42 30 -62 30 -116 -1 -142 -92&#10;-245 -229 -257 -110 -10 -203 40 -253 136 -87 167 35 371 222 371 32 0 72 -5&#10;91 -12z m19904 -7 c60 -27 101 -66 129 -123 84 -169 -40 -368 -229 -368 -60 0&#10;-109 17 -157 53 -98 75 -128 219 -68 323 31 55 86 104 135 122 49 17 145 14&#10;190 -7z m-19002 -257 c168 -38 298 -152 363 -319 27 -71 27 -249 0 -320 -66&#10;-172 -202 -286 -384 -322 -74 -15 -89 -15 -159 -1 -114 23 -187 61 -266 139&#10;-188 187 -196 477 -18 671 72 78 144 122 241 147 93 25 132 25 223 5z m18131&#10;-4 c104 -26 173 -68 245 -146 180 -197 173 -485 -16 -673 -78 -77 -151 -116&#10;-264 -139 -69 -15 -82 -14 -159 1 -170 33 -287 122 -363 275 l-42 85 0 116 c0&#10;129 12 174 72 268 68 109 171 183 298 214 93 23 136 23 229 -1z m-10621 -481&#10;c239 -103 690 -246 1180 -374 168 -44 187 -51 187 -68 0 -10 20 -13 79 -13 66&#10;0 80 3 84 16 3 10 24 22 53 29 27 7 69 19 94 26 25 7 99 27 165 45 430 116&#10;755 220 1013 324 123 50 137 53 149 33 31 -49 248 -201 363 -255 247 -113 602&#10;-122 1085 -25 151 30 330 74 405 100 81 27 198 81 206 95 12 20 34 4 82 -59&#10;277 -373 706 -630 1222 -733 195 -39 272 -45 545 -45 275 0 372 8 569 46 54&#10;10 103 19 108 19 9 0 -3 -24 -84 -170 -14 -25 -71 -127 -127 -228 -98 -176&#10;-164 -272 -434 -633 -64 -86 -117 -161 -117 -167 0 -19 310 -278 562 -470 319&#10;-243 834 -591 1028 -696 19 -10 46 -26 60 -35 24 -17 138 -82 230 -133 25 -14&#10;70 -39 100 -56 82 -45 443 -225 530 -265 114 -51 424 -181 525 -220 247 -95&#10;663 -224 865 -267 19 -5 80 -18 135 -29 388 -84 691 -116 1090 -116 395 0 640&#10;27 1025 115 136 30 389 111 556 178 134 53 409 185 395 190 -6 2 -61 -4 -123&#10;-13 -825 -121 -1779 -89 -2530 84 -419 97 -740 194 -1081 327 -794 309 -1573&#10;782 -2247 1363 -146 126 -240 214 -240 226 0 15 125 77 210 105 36 11 90 23&#10;120 26 59 6 62 6 385 -84 613 -171 1088 -257 1595 -290 302 -19 828 0 1050 38&#10;197 33 260 46 387 76 658 157 1248 495 1715 983 209 218 380 445 568 755 84&#10;138 86 140 149 172 84 41 195 56 367 48 153 -7 136 2 326 -171 468 -427 1010&#10;-1073 1465 -1747 359 -532 636 -1147 762 -1691 73 -319 95 -518 88 -800 -6&#10;-222 -23 -352 -72 -539 -67 -257 -204 -535 -369 -746 -354 -455 -814 -780&#10;-1576 -1112 -201 -87 -487 -208 -494 -208 -3 0 -135 -56 -294 -124 -273 -117&#10;-603 -275 -720 -345 -29 -17 -54 -31 -56 -31 -6 0 -198 -122 -266 -169 -348&#10;-240 -612 -525 -918 -991 -119 -182 -239 -383 -299 -502 -13 -26 -28 -50 -32&#10;-53 -5 -3 -40 37 -77 87 -352 481 -739 982 -952 1233 -47 55 -167 181 -266&#10;280 -443 440 -962 817 -1648 1193 -74 41 -414 212 -503 252 -312 143 -652 277&#10;-960 378 l-90 29 -43 74 c-73 123 -289 444 -401 593 -232 312 -485 525 -747&#10;630 -90 35 -288 86 -338 86 -14 0 -26 2 -26 5 0 3 26 40 59 83 157 207 204&#10;321 202 497 -2 264 -142 488 -441 706 -171 124 -299 198 -427 249 -35 14 -63&#10;27 -63 31 0 3 38 29 85 58 299 183 496 442 550 725 19 100 19 259 0 359 -35&#10;183 -123 379 -214 479 -299 326 -1074 558 -1865 558 -458 0 -785 -71 -1016&#10;-221 -64 -42 -184 -163 -178 -181 5 -14 32 -22 323 -89 435 -100 718 -169 885&#10;-216 69 -19 139 -38 155 -43 35 -9 190 -59 285 -90 421 -141 766 -333 916&#10;-511 67 -79 98 -138 120 -229 17 -70 17 -79 1 -155 -21 -101 -70 -197 -155&#10;-303 -74 -94 -55 -88 -195 -58 -195 43 -302 51 -677 51 -348 0 -414 -2 -733&#10;-25 -77 -6 -163 -11 -193 -11 -29 -1 -58 -7 -63 -13 -4 -6 -11 -31 -15 -56&#10;-15 -112 -16 -162 -6 -221 32 -173 140 -264 360 -304 84 -15 363 -18 505 -4&#10;503 46 577 48 722 19 503 -100 757 -335 837 -775 20 -110 34 -282 25 -297 -4&#10;-6 -51 -15 -105 -19 -128 -11 -280 -40 -409 -79 -432 -130 -775 -378 -974&#10;-703 -22 -37 -41 -72 -41 -77 0 -22 172 1 490 64 408 82 622 108 865 109 168&#10;0 216 -3 298 -21 240 -53 389 -150 483 -317 37 -68 67 -145 59 -154 -3 -3 -59&#10;-4 -123 -2 -450 10 -956 -90 -1379 -273 -148 -63 -427 -210 -563 -296 -8 -5&#10;-42 -25 -75 -46 -33 -20 -115 -74 -182 -120 -644 -444 -1079 -963 -1110 -1326&#10;-6 -74 -1 -80 40 -48 14 11 28 20 31 20 3 0 67 37 143 83 76 46 163 97 193&#10;114 30 16 109 61 175 98 135 77 675 351 805 409 312 140 630 247 850 286 407&#10;72 491 81 812 87 388 8 681 -24 1003 -108 66 -17 134 -34 150 -39 149 -38 389&#10;-132 610 -240 502 -244 963 -578 1525 -1105 202 -189 240 -228 525 -530 240&#10;-254 279 -295 395 -425 56 -63 119 -133 139 -155 20 -22 137 -152 261 -290&#10;299 -332 432 -478 569 -624 62 -66 108 -121 102 -121 -5 0 -30 6 -53 14 -24 8&#10;-79 24 -123 36 -44 12 -100 28 -125 35 -25 7 -101 28 -170 45 -69 17 -145 38&#10;-170 45 -25 7 -101 28 -170 45 -254 66 -649 180 -779 225 -40 14 -77 25 -81&#10;23 -5 -2 36 -55 92 -118 55 -63 171 -196 257 -295 168 -192 980 -1139 1021&#10;-1191 14 -17 120 -142 235 -279 116 -136 224 -264 240 -285 17 -21 145 -177&#10;286 -346 225 -273 623 -763 778 -960 188 -238 370 -473 387 -499 l19 -30 -35&#10;23 c-41 26 -188 120 -328 209 -287 183 -888 553 -897 553 -2 0 -36 20 -74 45&#10;-38 25 -72 45 -75 45 -4 0 -23 11 -44 24 -42 26 -356 207 -447 257 -171 93&#10;-257 138 -430 223 -203 100 -352 163 -362 153 -3 -4 34 -48 82 -99 525 -556&#10;1097 -1362 1550 -2183 12 -22 35 -62 50 -90 51 -91 321 -628 380 -755 103&#10;-224 193 -440 184 -440 -10 0 -451 217 -1367 673 -272 135 -492 240 -489 234&#10;2 -7 60 -86 128 -177 68 -91 168 -233 223 -315 54 -83 108 -163 119 -179 93&#10;-135 443 -793 556 -1046 240 -537 402 -961 569 -1490 33 -104 116 -380 126&#10;-420 4 -14 13 -50 22 -80 37 -135 74 -285 74 -303 0 -14 -195 174 -620 598&#10;-342 339 -623 616 -625 613 -3 -2 -7 -198 -9 -434 -3 -236 -9 -500 -15 -586&#10;-43 -624 -144 -1075 -322 -1438 -222 -452 -534 -713 -980 -819 -177 -42 -472&#10;-25 -1174 70 -121 16 -299 41 -395 55 -96 14 -206 30 -245 34 -38 5 -97 14&#10;-130 19 -33 6 -109 17 -170 26 -60 9 -153 22 -205 30 -52 7 -147 21 -210 30&#10;-63 9 -158 23 -210 30 -52 8 -210 30 -350 50 -140 19 -286 39 -325 44 -148 22&#10;-294 41 -657 86 -68 9 -172 22 -233 30 -60 8 -173 21 -250 30 -77 8 -176 20&#10;-220 25 -117 15 -423 46 -735 75 -91 8 -187 17 -215 20 -95 9 -431 35 -580 45&#10;-82 5 -184 12 -225 15 -512 36 -1085 48 -1955 41 -451 -3 -849 -8 -885 -11&#10;-36 -2 -164 -9 -285 -15 -366 -17 -827 -50 -1210 -85 -321 -30 -717 -70 -795&#10;-80 -19 -3 -78 -9 -130 -15 -52 -6 -171 -20 -265 -31 -93 -12 -204 -25 -245&#10;-29 -41 -5 -129 -16 -195 -25 -66 -8 -190 -24 -275 -36 -85 -11 -216 -28 -290&#10;-39 -74 -10 -236 -33 -360 -50 -288 -40 -472 -66 -635 -91 -71 -10 -166 -24&#10;-210 -30 -44 -5 -138 -19 -210 -30 -71 -11 -159 -24 -195 -29 -60 -8 -280 -39&#10;-530 -75 -706 -101 -1100 -127 -1280 -85 -505 121 -862 465 -1070 1030 -53&#10;146 -63 177 -100 329 -104 419 -146 868 -148 1565 0 191 -3 350 -6 353 -3 3&#10;-284 -273 -625 -613 -423 -420 -621 -611 -621 -597 0 17 20 100 66 273 106&#10;401 304 1000 469 1415 343 868 714 1556 1157 2149 70 94 125 172 123 175 -3 2&#10;-166 -76 -362 -174 -927 -461 -1482 -735 -1491 -735 -20 0 176 435 359 800&#10;299 594 568 1050 944 1595 90 131 367 502 436 585 152 182 317 372 406 468 58&#10;62 103 116 99 119 -9 9 -158 -53 -361 -153 -259 -127 -537 -278 -814 -443 -53&#10;-31 -103 -60 -111 -64 -16 -7 -32 -17 -97 -59 -23 -16 -44 -28 -48 -28 -3 0&#10;-32 -16 -63 -37 -31 -20 -70 -44 -87 -53 -50 -29 -412 -252 -538 -331 -208&#10;-131 -350 -221 -447 -284 -128 -83 -125 -81 -115 -64 25 42 491 636 717 914&#10;443 545 668 817 1061 1284 444 526 1081 1268 1439 1675 57 65 92 112 84 114&#10;-7 2 -35 -6 -63 -17 -91 -36 -506 -157 -793 -231 -69 -17 -145 -38 -170 -45&#10;-25 -7 -126 -34 -225 -60 -99 -26 -231 -62 -294 -81 -62 -19 -118 -34 -124&#10;-34 -6 0 18 30 53 68 150 158 220 234 305 327 50 55 111 122 136 150 25 27 61&#10;68 81 90 444 499 747 829 1138 1239 106 111 477 456 646 601 153 130 432 343&#10;579 442 387 259 854 483 1208 578 253 69 436 104 687 131 271 29 737 12 1038&#10;-36 119 -20 365 -70 442 -91 430 -117 1080 -427 1823 -868 103 -61 189 -111&#10;192 -111 12 0 3 93 -16 166 -121 462 -746 1069 -1569 1522 -398 218 -770 345&#10;-1190 406 -146 22 -393 38 -533 35 -64 -1 -119 0 -122 3 -8 8 23 87 62 158 89&#10;159 246 261 481 312 81 18 129 21 297 21 247 -1 440 -25 895 -114 222 -44 378&#10;-69 428 -69 l44 0 -23 38 c-132 221 -263 361 -469 501 -266 181 -611 302 -947&#10;330 -52 5 -98 12 -103 17 -9 10 11 225 30 322 72 367 269 582 645 704 132 43&#10;274 68 378 68 51 0 191 -10 312 -21 319 -29 595 -35 718 -15 285 47 401 198&#10;367 476 -7 55 -17 103 -22 106 -12 8 -28 9 -401 34 -543 36 -1001 24 -1262&#10;-35 -142 -32 -123 -37 -196 54 -84 106 -136 209 -156 308 -16 74 -16 83 1 153&#10;22 92 34 116 100 204 103 138 366 312 641 424 94 39 230 90 295 112 91 30 249&#10;80 285 90 17 5 55 16 85 25 159 46 519 134 975 237 198 45 300 76 299 92 -4&#10;43 -131 154 -251 218 -147 79 -341 133 -592 164 -169 21 -641 15 -821 -10&#10;-661 -91 -1160 -283 -1391 -534 -64 -71 -131 -195 -174 -327 -85 -258 -72&#10;-526 36 -739 101 -199 262 -368 476 -498 46 -28 83 -54 83 -57 0 -3 -21 -15&#10;-48 -25 -88 -35 -221 -104 -294 -153 -426 -281 -589 -509 -589 -821 1 -159 47&#10;-276 181 -454 44 -59 80 -109 80 -112 0 -3 -12 -6 -26 -6 -50 0 -248 -51 -338&#10;-86 -358 -144 -653 -445 -1058 -1080 -45 -72 -95 -151 -109 -175 -24 -41 -31&#10;-46 -115 -72 -590 -188 -1271 -501 -1839 -845 -628 -381 -1153 -812 -1537&#10;-1259 -79 -92 -137 -164 -319 -393 -102 -128 -393 -512 -563 -742 -76 -104&#10;-142 -186 -147 -183 -4 3 -26 41 -48 84 -137 268 -430 706 -645 961 -165 196&#10;-372 379 -595 526 -64 42 -128 85 -143 95 -15 11 -29 19 -32 19 -2 0 -40 21&#10;-83 46 -78 47 -351 186 -473 242 -85 39 -560 242 -566 242 -7 0 -291 120 -494&#10;208 -202 88 -496 232 -606 297 -42 25 -78 45 -80 45 -11 0 -270 176 -356 241&#10;-344 264 -595 560 -758 894 -104 212 -157 382 -197 630 -24 152 -25 560 0 725&#10;71 484 195 875 428 1355 196 404 376 689 750 1186 403 536 771 949 1157 1299&#10;150 136 134 129 307 134 173 5 263 -7 348 -48 65 -31 64 -31 153 -181 139&#10;-234 281 -432 454 -630 44 -51 283 -290 335 -335 457 -399 1024 -675 1644&#10;-799 320 -64 554 -86 931 -86 413 0 699 27 1150 109 263 48 389 78 770 182&#10;361 99 351 96 410 90 30 -3 84 -15 120 -26 86 -28 210 -90 210 -105 0 -28&#10;-389 -360 -670 -571 -557 -420 -1189 -773 -1817 -1018 -331 -129 -746 -255&#10;-1054 -321 -862 -183 -1650 -213 -2532 -94 -82 12 -151 19 -153 16 -7 -7 294&#10;-147 435 -202 178 -69 391 -137 521 -165 432 -95 732 -126 1120 -116 135 3&#10;256 8 270 10 14 2 61 6 105 10 232 20 617 88 860 152 50 13 101 26 115 30 122&#10;31 451 138 635 207 876 331 1856 900 2659 1546 65 53 133 107 150 121 79 62&#10;236 203 236 212 0 5 -39 62 -87 126 -335 450 -363 492 -523 780 -88 158 -157&#10;288 -156 290 2 2 53 -6 112 -17 60 -11 150 -25 199 -33 121 -18 608 -18 730 0&#10;645 95 1116 358 1441 808 l21 29 79 -41 c118 -62 246 -102 489 -153 270 -56&#10;454 -79 655 -79 307 0 479 52 711 218 46 32 102 77 124 99 22 22 46 40 53 41&#10;7 0 45 -14 85 -31z m1567 -20689 c58 -5 161 -14 230 -19 247 -20 509 -42 710&#10;-61 113 -11 257 -24 320 -30 63 -5 131 -12 150 -15 19 -3 87 -9 150 -15 63 -5&#10;153 -14 200 -20 47 -5 150 -16 230 -25 310 -33 853 -96 1040 -120 419 -54 598&#10;-77 690 -90 99 -14 147 -21 418 -60 183 -27 790 -123 947 -151 313 -55 601&#10;-109 795 -149 36 -8 76 -16 90 -18 88 -16 634 -141 770 -177 41 -10 86 -22&#10;100 -26 686 -173 1272 -402 1587 -621 l61 -43 42 15 c24 8 50 15 59 15 20 0&#10;253 -235 378 -380 360 -420 674 -904 973 -1498 72 -143 200 -417 200 -427 0&#10;-3 11 -28 24 -57 70 -151 184 -439 267 -678 68 -192 89 -268 99 -349 6 -48 15&#10;-113 20 -146 23 -153 32 -226 29 -230 -3 -2 -79 69 -169 158 -300 294 -608&#10;534 -997 775 -73 45 -149 92 -170 103 -159 90 -239 132 -383 204 -263 132&#10;-302 145 -268 93 37 -57 100 -183 151 -303 271 -639 409 -1569 376 -2542 -18&#10;-556 -80 -1037 -190 -1483 -29 -115 -102 -359 -134 -445 -15 -38 -30 -81 -35&#10;-95 -38 -118 -179 -395 -266 -525 -113 -170 -203 -267 -348 -376 -57 -42 -82&#10;-56 -87 -47 -4 7 -10 45 -14 83 -19 191 -67 473 -126 735 -11 52 -25 113 -29&#10;135 -44 203 -172 590 -266 805 -89 201 -232 441 -326 545 l-44 48 -24 -59&#10;c-139 -356 -372 -825 -570 -1150 -706 -1157 -1754 -2184 -3008 -2947 -51 -31&#10;-95 -57 -97 -57 -2 0 -36 -19 -77 -43 -101 -60 -306 -167 -319 -167 -13 0 -12&#10;6 36 130 100 258 163 527 212 915 14 113 18 216 18 540 0 417 -8 536 -56 865&#10;-21 146 -27 170 -37 170 -4 -1 -43 -51 -87 -112 -259 -360 -672 -894 -954&#10;-1234 -42 -50 -94 -113 -116 -140 -83 -101 -352 -413 -443 -514 -219 -244&#10;-266 -294 -448 -485 -379 -397 -778 -767 -1088 -1010 -130 -102 -359 -265&#10;-372 -265 -29 0 -452 323 -659 504 -230 201 -690 649 -920 896 -255 273 -596&#10;661 -851 970 -106 128 -177 217 -470 585 -86 108 -504 667 -560 747 -21 32&#10;-42 58 -46 58 -9 0 -14 -19 -27 -100 -57 -355 -66 -479 -66 -925 0 -398 5&#10;-491 41 -730 42 -281 107 -529 200 -769 19 -48 32 -91 29 -94 -19 -19 -593&#10;313 -875 506 -52 36 -115 79 -140 95 -181 122 -642 484 -820 642 -545 487&#10;-963 946 -1350 1484 -147 204 -348 520 -449 704 -17 31 -45 83 -63 115 -111&#10;201 -303 612 -370 792 -32 86 -34 86 -85 27 -257 -299 -500 -906 -638 -1587&#10;-9 -47 -20 -103 -25 -125 -21 -98 -78 -473 -82 -540 -4 -54 -21 -54 -93 0&#10;-531 399 -873 1346 -967 2680 -18 254 -15 828 6 1103 16 225 19 247 56 512 54&#10;385 132 715 244 1026 36 99 121 287 172 378 30 54 53 101 50 104 -12 11 -397&#10;-174 -554 -267 -29 -17 -55 -31 -57 -31 -2 0 -57 -32 -122 -71 -391 -236 -751&#10;-505 -1028 -770 -52 -51 -98 -89 -101 -86 -6 6 15 173 62 497 15 96 27 207 29&#10;245 1 39 7 81 13 95 6 14 26 66 46 115 38 99 165 399 216 510 135 295 382 760&#10;505 950 339 527 524 765 844 1087 l156 157 98 -29 98 -30 87 59 c162 110 331&#10;195 586 295 274 108 655 229 976 310 14 4 59 16 100 26 41 11 183 45 315 75&#10;132 30 258 60 280 65 22 5 87 19 145 30 58 12 123 25 145 30 129 27 548 106&#10;775 145 52 9 122 21 155 27 33 5 85 14 115 18 30 5 156 25 280 45 216 34 802&#10;119 1040 150 63 8 147 20 185 25 39 5 111 15 160 20 50 6 104 13 120 15 29 4&#10;492 59 755 90 69 8 193 21 275 30 83 8 191 20 240 26 50 5 160 16 245 25 407&#10;38 472 44 570 54 58 6 186 17 285 25 99 8 200 17 225 20 25 2 142 12 260 20&#10;118 9 220 18 225 20 18 7 79 5 185 -5z"></path>
    <path d="M37428 50753 c-25 -28 -40 -62 -54 -122 -16 -68 -50 -298 -59 -401&#10;-4 -41 -8 -88 -10 -105 -2 -16 -9 -109 -15 -205 -6 -96 -13 -200 -15 -230 -2&#10;-30 -9 -158 -15 -285 -5 -126 -12 -264 -15 -305 -3 -41 -10 -217 -15 -390 -6&#10;-173 -12 -353 -15 -400 -3 -47 -10 -238 -15 -425 -6 -187 -12 -383 -15 -435&#10;-3 -52 -9 -230 -15 -395 -5 -165 -12 -349 -15 -410 -3 -60 -10 -205 -14 -322&#10;-5 -116 -12 -217 -16 -223 -8 -12 -459 -12 -865 1 -818 26 -1847 118 -2795&#10;249 -82 12 -181 25 -220 30 -38 5 -97 14 -130 19 -33 6 -121 20 -195 31 -299&#10;46 -538 85 -705 115 -44 8 -118 22 -165 30 -289 51 -466 85 -690 131 -69 14&#10;-149 29 -178 34 -30 5 -62 12 -73 15 -10 3 -40 10 -66 14 -82 15 -455 95 -633&#10;136 -63 15 -142 33 -175 40 -33 7 -103 23 -155 35 -316 70 -697 134 -940 156&#10;-41 3 -84 8 -95 10 -79 15 -615 35 -785 30 -319 -11 -637 -37 -820 -66 -230&#10;-38 -303 -52 -470 -91 -148 -35 -346 -97 -337 -105 2 -2 109 -17 238 -34 407&#10;-52 537 -71 979 -140 238 -37 760 -131 1110 -199 174 -33 550 -112 680 -141&#10;629 -142 1281 -302 1565 -384 44 -13 132 -38 195 -56 63 -17 293 -85 510 -149&#10;217 -65 445 -132 505 -148 145 -40 526 -133 685 -168 41 -9 93 -20 115 -25&#10;164 -37 632 -124 805 -150 41 -6 118 -18 170 -26 252 -39 644 -87 940 -115 58&#10;-5 128 -12 155 -14 151 -15 528 -39 835 -54 91 -4 340 -9 555 -10 214 -1 394&#10;-6 398 -10 5 -5 1 -123 -8 -262 -20 -320 -54 -808 -60 -874 -3 -27 -9 -113&#10;-15 -190 -6 -77 -14 -185 -20 -240 -5 -55 -16 -176 -25 -270 -47 -500 -115&#10;-1078 -129 -1092 -9 -9 -444 -9 -550 0 -290 24 -485 55 -726 113 -261 64 -454&#10;137 -750 284 -207 104 -449 220 -456 220 -2 0 -41 17 -86 39 -114 53 -445 194&#10;-670 285 -337 136 -615 236 -1218 436 -841 279 -1097 359 -1515 470 -371 100&#10;-688 165 -1066 220 -262 38 -725 50 -949 24 -212 -24 -428 -78 -577 -145 -69&#10;-30 -193 -101 -193 -110 0 -8 9 -9 270 -34 663 -63 1412 -194 1895 -331 281&#10;-79 509 -153 775 -250 98 -35 383 -154 520 -216 137 -62 554 -271 650 -325 19&#10;-11 76 -41 125 -68 50 -26 116 -63 148 -81 32 -19 59 -34 61 -34 5 0 544 -311&#10;729 -422 55 -32 100 -58 102 -58 2 0 26 -13 53 -29 27 -16 74 -42 103 -59 30&#10;-16 97 -53 149 -82 126 -70 497 -253 635 -314 507 -223 1082 -414 1775 -590&#10;247 -63 421 -104 655 -156 110 -24 392 -83 485 -101 183 -35 175 -33 178 -58&#10;4 -22 6 -23 55 -15 65 9 89 9 154 0 49 -8 51 -7 55 15 3 21 14 25 138 50 227&#10;45 392 79 455 94 33 8 92 21 130 29 764 166 1547 397 2100 619 291 117 664&#10;293 900 424 50 28 122 67 160 88 39 21 87 49 107 62 21 13 40 23 43 23 3 0 22&#10;11 43 24 33 21 193 114 547 319 589 342 1116 608 1550 784 168 68 177 71 320&#10;122 199 71 411 137 650 205 482 137 1234 268 1895 331 260 25 270 26 270 32 0&#10;22 -186 115 -329 163 -597 202 -1514 127 -2716 -222 -77 -22 -153 -44 -170&#10;-48 -16 -4 -66 -19 -110 -33 -44 -14 -147 -47 -230 -72 -297 -94 -1374 -454&#10;-1535 -515 -570 -213 -1125 -453 -1630 -705 -257 -128 -382 -179 -605 -248&#10;-183 -56 -533 -123 -750 -142 -38 -4 -88 -8 -110 -10 -198 -19 -664 -9 -687&#10;13 -9 9 -50 454 -88 957 -6 72 -12 155 -15 185 -2 30 -9 132 -15 225 -6 94&#10;-12 188 -15 210 -3 22 -9 132 -15 245 -6 113 -12 232 -15 265 -4 56 -15 250&#10;-33 590 -3 77 -7 163 -7 190 l0 50 485 6 c435 6 857 20 980 34 25 3 113 10&#10;195 15 83 6 170 13 195 15 25 3 92 9 150 15 176 16 377 38 545 60 271 35 305&#10;39 368 50 34 5 109 17 167 25 302 47 829 149 1085 210 304 73 447 108 485 120&#10;25 7 97 27 160 45 63 17 270 78 460 135 318 95 444 132 590 172 30 8 69 19 85&#10;23 416 115 1116 289 1450 359 22 5 105 23 185 40 424 93 1031 210 1433 276&#10;121 21 262 44 327 55 162 27 648 96 919 130 129 16 236 31 238 33 5 6 -65 31&#10;-167 61 -508 148 -1210 224 -1826 197 -251 -11 -589 -39 -729 -60 -33 -5 -109&#10;-17 -170 -26 -201 -30 -481 -86 -750 -150 -56 -13 -255 -58 -405 -90 -36 -8&#10;-132 -28 -215 -45 -82 -17 -168 -35 -190 -40 -22 -5 -121 -25 -220 -44 -99&#10;-20 -214 -42 -255 -51 -75 -14 -329 -61 -490 -90 -47 -8 -121 -22 -165 -30&#10;-44 -8 -122 -21 -172 -30 -140 -23 -271 -45 -333 -55 -30 -5 -86 -14 -125 -20&#10;-38 -5 -130 -18 -202 -29 -212 -33 -330 -50 -453 -66 -63 -8 -164 -22 -225&#10;-30 -124 -16 -185 -23 -505 -59 -124 -14 -265 -30 -315 -36 -171 -19 -702 -64&#10;-955 -80 -85 -5 -194 -13 -241 -16 -227 -16 -721 -30 -1063 -29 -371 0 -379 0&#10;-382 20 -1 11 -7 160 -14 330 -6 171 -13 344 -15 385 -3 41 -9 210 -15 375 -6&#10;165 -12 338 -15 385 -3 47 -9 207 -15 355 -6 149 -12 308 -15 355 -3 47 -9&#10;191 -15 320 -5 129 -12 269 -15 310 -3 41 -10 170 -15 285 -6 116 -13 228 -15&#10;250 -2 22 -7 87 -10 145 -16 266 -52 636 -80 820 -41 263 -95 382 -147 323z"></path>
    <path d="M32175 34363 c-60 -87 -159 -225 -219 -308 -150 -205 -275 -367 -457&#10;-590 -355 -433 -806 -895 -1219 -1250 -471 -404 -964 -735 -1445 -970 -121&#10;-59 -228 -112 -238 -117 -45 -23 -315 -126 -457 -174 -178 -60 -168 -67 57&#10;-34 804 119 1542 410 2228 878 650 443 1243 1049 1687 1722 42 63 99 155 127&#10;205 l51 89 1 221 c1 121 3 267 5 325 2 58 0 118 -4 133 -7 27 -13 21 -117&#10;-130z"></path>
    <path d="M42708 34504 c-5 -20 0 -589 6 -664 3 -47 38 -111 181 -330 320 -489&#10;804 -1028 1240 -1380 44 -36 86 -71 93 -77 71 -67 451 -330 627 -434 168 -100&#10;192 -113 362 -198 410 -206 810 -346 1268 -445 166 -35 445 -78 486 -74 28 2&#10;11 11 -96 46 -457 153 -959 401 -1392 688 -940 622 -1854 1561 -2663 2734&#10;-111 161 -107 157 -112 134z"></path>
    <path d="M36290 28704 c0 -9 18 -89 39 -178 22 -88 53 -217 70 -286 16 -69 46&#10;-192 66 -275 20 -82 51 -213 70 -290 19 -77 48 -197 64 -267 57 -235 92 -381&#10;141 -583 27 -110 60 -249 75 -310 14 -60 41 -173 60 -250 19 -77 50 -207 70&#10;-290 20 -82 49 -205 66 -272 16 -68 43 -180 60 -250 16 -71 46 -192 65 -270&#10;18 -79 50 -207 68 -285 19 -79 49 -201 66 -273 17 -71 55 -229 84 -350 30&#10;-121 73 -300 96 -397 23 -98 46 -178 50 -178 4 0 20 51 35 113 58 242 105 438&#10;135 562 30 124 49 204 139 575 40 166 75 310 132 548 16 70 45 190 64 267 19&#10;77 45 187 59 245 14 58 46 191 71 295 25 105 60 246 76 315 17 69 46 190 65&#10;270 19 80 48 200 65 268 60 253 89 372 128 532 22 91 54 224 71 295 55 231 80&#10;336 126 521 52 216 53 227 17 182 -32 -38 -45 -53 -144 -169 -41 -47 -95 -110&#10;-120 -140 -175 -206 -455 -536 -464 -545 -5 -6 -30 -36 -55 -65 -192 -228&#10;-393 -459 -400 -459 -5 0 -62 62 -126 138 -337 394 -743 872 -789 927 -162&#10;195 -295 343 -295 329z"></path>
    <path d="M32025 26735 c-144 -20 -315 -63 -475 -120 -74 -27 -270 -125 -345&#10;-173 -395 -253 -705 -679 -821 -1126 -19 -74 -42 -214 -36 -220 2 -3 22 16 44&#10;42 59 69 272 284 353 356 121 108 358 280 376 274 6 -2 30 -51 53 -108 308&#10;-766 740 -1286 1291 -1555 272 -133 524 -190 830 -189 154 1 348 23 367 42 4&#10;4 -15 14 -44 21 -370 93 -790 304 -1097 550 -345 276 -580 609 -734 1041 -52&#10;144 -115 469 -94 482 49 31 406 108 441 95 12 -5 13 -12 4 -44 -20 -65 -14&#10;-248 11 -338 82 -306 294 -637 611 -956 265 -266 503 -427 720 -486 197 -53&#10;508 -70 701 -37 80 13 210 51 270 78 19 8 35 -32 63 -159 52 -236 74 -410 82&#10;-656 11 -330 -10 -509 -96 -834 -10 -38 -37 -140 -59 -225 -33 -127 -151 -560&#10;-218 -800 -41 -149 -42 -158 -5 -130 64 50 359 340 467 459 159 175 194 225&#10;270 376 200 403 285 776 285 1245 0 311 -30 542 -109 851 -102 398 -220 663&#10;-428 964 -158 229 -418 498 -652 674 -459 346 -920 540 -1436 607 -133 17&#10;-462 16 -590 -1z"></path>
    <path d="M42365 26735 c-407 -53 -835 -216 -1215 -463 -74 -48 -276 -195 -290&#10;-211 -3 -3 -30 -27 -60 -52 -78 -67 -297 -290 -375 -384 -37 -44 -109 -143&#10;-160 -220 -212 -318 -323 -592 -434 -1070 -83 -363 -94 -869 -26 -1227 49&#10;-257 118 -464 235 -701 80 -162 113 -209 271 -384 115 -127 483 -483 499 -483&#10;5 0 0 33 -12 73 -11 39 -27 97 -35 127 -8 30 -19 69 -24 85 -4 17 -15 55 -23&#10;85 -7 30 -39 145 -69 255 -31 110 -70 254 -87 320 -17 66 -42 161 -55 210 -71&#10;270 -87 358 -98 549 -21 358 25 810 110 1079 12 38 18 47 32 41 155 -67 306&#10;-94 518 -94 268 0 490 44 647 130 171 92 341 224 521 405 332 331 535 651 621&#10;975 20 77 23 279 5 324 -18 45 -4 50 91 36 120 -17 323 -68 355 -88 10 -6 8&#10;-34 -8 -127 -49 -289 -133 -525 -267 -755 -205 -352 -475 -620 -867 -860 -203&#10;-124 -542 -269 -763 -325 -39 -11 -69 -22 -64 -27 18 -18 215 -41 367 -42 350&#10;-2 666 84 971 262 323 189 627 506 869 907 69 114 214 409 270 550 27 66 52&#10;124 57 130 5 6 20 2 41 -10 53 -31 267 -194 342 -261 82 -72 294 -287 356&#10;-359 l42 -50 -6 70 c-21 221 -148 530 -316 770 -114 163 -307 358 -461 467&#10;-91 65 -344 198 -440 231 -81 28 -224 69 -290 84 -196 42 -561 55 -775 28z"></path>
  </g>
</svg>
